<svg width="561" height="1590" xmlns="http://www.w3.org/2000/svg" xmlns:xlink="http://www.w3.org/1999/xlink" xml:space="preserve" overflow="hidden"><g transform="translate(-1828 0)"><path d="M2200 6.99987C2300.52 6.99987 2382 88.4841 2382 189" stroke="#000000" stroke-width="13.75" stroke-linecap="round" stroke-linejoin="round" stroke-miterlimit="10" fill="none" fill-rule="evenodd"/><path d="M2018 189C2018 88.4839 2099.48 6.99966 2200 6.99966" stroke="#000000" stroke-width="13.75" stroke-linecap="round" stroke-linejoin="round" stroke-miterlimit="10" fill="none" fill-rule="evenodd"/><path d="M2200 98C2300.52 98 2382 179.708 2382 280.5" stroke="#000000" stroke-width="13.75" stroke-linecap="round" stroke-linejoin="round" stroke-miterlimit="10" fill="none" fill-rule="evenodd"/><path d="M2018 280.5C2018 179.708 2099.48 97.9999 2200 97.9999" stroke="#000000" stroke-width="13.75" stroke-linecap="round" stroke-linejoin="round" stroke-miterlimit="10" fill="none" fill-rule="evenodd"/><path d="M2200 1492C2099.48 1492 2018 1410.29 2018 1309.5" stroke="#000000" stroke-width="13.75" stroke-linecap="round" stroke-linejoin="round" stroke-miterlimit="10" fill="none" fill-rule="evenodd"/><path d="M2382 1309.5C2382 1410.29 2300.52 1492 2200 1492" stroke="#000000" stroke-width="13.75" stroke-linecap="round" stroke-linejoin="round" stroke-miterlimit="10" fill="none" fill-rule="evenodd"/><path d="M2018 280 2018 1309.12" stroke="#000000" stroke-width="13.75" stroke-linecap="round" stroke-linejoin="round" stroke-miterlimit="10" fill="none" fill-rule="evenodd"/><path d="M0 0 0.000360892 1211.39" stroke="#000000" stroke-width="13.75" stroke-linecap="round" stroke-linejoin="round" stroke-miterlimit="10" fill="none" fill-rule="evenodd" transform="matrix(-1 0 0 1 2382 189)"/><path d="M2139 280.5C2139 247.087 2166.31 220 2200 220 2233.69 220 2261 247.087 2261 280.5 2261 313.913 2233.69 341 2200 341 2166.31 341 2139 313.913 2139 280.5Z" stroke="#000000" stroke-width="13.75" stroke-linecap="round" stroke-linejoin="round" stroke-miterlimit="10" fill="none" fill-rule="evenodd"/><path d="M2139 485.5C2139 452.087 2166.31 425 2200 425 2233.69 425 2261 452.087 2261 485.5 2261 518.913 2233.69 546 2200 546 2166.31 546 2139 518.913 2139 485.5Z" stroke="#000000" stroke-width="13.75" stroke-linecap="round" stroke-linejoin="round" stroke-miterlimit="10" fill="none" fill-rule="evenodd"/><path d="M2139 691C2139 657.311 2166.31 630 2200 630 2233.69 630 2261 657.311 2261 691 2261 724.69 2233.69 752 2200 752 2166.31 752 2139 724.69 2139 691Z" stroke="#000000" stroke-width="13.75" stroke-linecap="round" stroke-linejoin="round" stroke-miterlimit="10" fill="none" fill-rule="evenodd"/><path d="M2139 897C2139 863.311 2166.31 836 2200 836 2233.69 836 2261 863.311 2261 897 2261 930.689 2233.69 958 2200 958 2166.31 958 2139 930.689 2139 897Z" stroke="#000000" stroke-width="13.75" stroke-linecap="round" stroke-linejoin="round" stroke-miterlimit="10" fill="none" fill-rule="evenodd"/><path d="M2139 1309.5C2139 1276.09 2166.31 1249 2200 1249 2233.69 1249 2261 1276.09 2261 1309.5 2261 1342.91 2233.69 1370 2200 1370 2166.31 1370 2139 1342.91 2139 1309.5Z" stroke="#000000" stroke-width="13.75" stroke-linecap="round" stroke-linejoin="round" stroke-miterlimit="10" fill="none" fill-rule="evenodd"/><path d="M2139 1103C2139 1069.31 2166.31 1042 2200 1042 2233.69 1042 2261 1069.31 2261 1103 2261 1136.69 2233.69 1164 2200 1164 2166.31 1164 2139 1136.69 2139 1103Z" stroke="#000000" stroke-width="13.75" stroke-linecap="round" stroke-linejoin="round" stroke-miterlimit="10" fill="none" fill-rule="evenodd"/><path d="M2200 1583C2099.48 1583 2018 1501.29 2018 1400.5" stroke="#000000" stroke-width="13.75" stroke-linecap="round" stroke-linejoin="round" stroke-miterlimit="10" fill="none" fill-rule="evenodd"/><path d="M2382 1400.5C2382 1501.29 2300.52 1583 2200 1583" stroke="#000000" stroke-width="13.75" stroke-linecap="round" stroke-linejoin="round" stroke-miterlimit="10" fill="none" fill-rule="evenodd"/><path d="M0 0 182.27 441.077" stroke="#000000" stroke-width="13.75" stroke-linecap="round" stroke-linejoin="round" stroke-miterlimit="10" fill="none" fill-rule="evenodd" transform="matrix(1 0 0 -1 1835 630.077)"/><path d="M1835 958 2017.27 1400.73" stroke="#000000" stroke-width="13.75" stroke-linecap="round" stroke-linejoin="round" stroke-miterlimit="10" fill="none" fill-rule="evenodd"/><path d="M1835 630 1835 957.582" stroke="#000000" stroke-width="13.75" stroke-linecap="round" stroke-linejoin="round" stroke-miterlimit="10" fill="none" fill-rule="evenodd"/><path d="M1908 794C1908 766.938 1929.94 745 1957 745 1984.06 745 2006 766.938 2006 794 2006 821.062 1984.06 843 1957 843 1929.94 843 1908 821.062 1908 794Z" stroke="#000000" stroke-width="13.75" stroke-linecap="round" stroke-linejoin="round" stroke-miterlimit="10" fill="none" fill-rule="evenodd"/><path d="M1900 657.5C1900 642.865 1911.86 631 1926.5 631 1941.14 631 1953 642.865 1953 657.5 1953 672.136 1941.14 684 1926.5 684 1911.86 684 1900 672.136 1900 657.5Z" stroke="#000000" stroke-width="13.75" stroke-linecap="round" stroke-linejoin="round" stroke-miterlimit="10" fill="none" fill-rule="evenodd"/><path d="M1900 931.5C1900 916.865 1911.86 905 1926.5 905 1941.14 905 1953 916.865 1953 931.5 1953 946.136 1941.14 958 1926.5 958 1911.86 958 1900 946.136 1900 931.5Z" stroke="#000000" stroke-width="13.75" stroke-linecap="round" stroke-linejoin="round" stroke-miterlimit="10" fill="none" fill-rule="evenodd"/><path d="M0 0 70.7039 253.209" stroke="#000000" stroke-width="6.875" stroke-miterlimit="8" fill="none" fill-rule="evenodd" transform="matrix(1 0 0 -1 1945.5 639.708)"/><path d="M2017.92 1206.13 1945.5 950.5" stroke="#000000" stroke-width="6.875" stroke-miterlimit="8" fill="none" fill-rule="evenodd"/><path d="M2170 54.5C2170 37.6553 2183.43 24.0001 2200 24.0001 2216.57 24.0001 2230 37.6553 2230 54.5 2230 71.3446 2216.57 84.9999 2200 84.9999 2183.43 84.9999 2170 71.3446 2170 54.5Z" stroke="#000000" stroke-width="13.75" stroke-linecap="round" stroke-linejoin="round" stroke-miterlimit="10" fill="none" fill-rule="evenodd"/><path d="M2170 1536.5C2170 1519.66 2183.43 1506 2200 1506 2216.57 1506 2230 1519.66 2230 1536.5 2230 1553.34 2216.57 1567 2200 1567 2183.43 1567 2170 1553.34 2170 1536.5Z" stroke="#000000" stroke-width="13.75" stroke-linecap="round" stroke-linejoin="round" stroke-miterlimit="10" fill="none" fill-rule="evenodd"/></g></svg>