<svg width="765" height="1407" xmlns="http://www.w3.org/2000/svg" xmlns:xlink="http://www.w3.org/1999/xlink" xml:space="preserve" overflow="hidden"><g transform="translate(-2694 -102)"><path d="M3452 1376.83C3452 1445.96 3395.96 1502 3326.83 1502L2826.17 1502C2757.04 1502 2701 1445.96 2701 1376.83L2701 234.169C2701 165.04 2757.04 109 2826.17 109L3326.83 109C3395.96 109 3452 165.04 3452 234.169Z" stroke="#0D0D0D" stroke-width="13.75" stroke-miterlimit="8" fill="none" fill-rule="evenodd"/><path d="M3452 1320.12 3452 291" stroke="#000000" stroke-width="13.75" stroke-linecap="round" stroke-linejoin="round" stroke-miterlimit="10" fill="none" fill-rule="evenodd"/><path d="M3331 1320C3331 1353.69 3303.69 1381 3270 1381 3236.31 1381 3209 1353.69 3209 1320 3209 1286.31 3236.31 1259 3270 1259 3303.69 1259 3331 1286.31 3331 1320Z" stroke="#000000" stroke-width="13.75" stroke-linecap="round" stroke-linejoin="round" stroke-miterlimit="10" fill="none" fill-rule="evenodd"/><path d="M3331 1114.5C3331 1147.91 3303.69 1175 3270 1175 3236.31 1175 3209 1147.91 3209 1114.5 3209 1081.09 3236.31 1054 3270 1054 3303.69 1054 3331 1081.09 3331 1114.5Z" stroke="#000000" stroke-width="13.75" stroke-linecap="round" stroke-linejoin="round" stroke-miterlimit="10" fill="none" fill-rule="evenodd"/><path d="M3331 909C3331 942.689 3303.69 970 3270 970 3236.31 970 3209 942.689 3209 909 3209 875.311 3236.31 848 3270 848 3303.69 848 3331 875.311 3331 909Z" stroke="#000000" stroke-width="13.75" stroke-linecap="round" stroke-linejoin="round" stroke-miterlimit="10" fill="none" fill-rule="evenodd"/><path d="M3331 703C3331 736.69 3303.69 764 3270 764 3236.31 764 3209 736.69 3209 703 3209 669.311 3236.31 642 3270 642 3303.69 642 3331 669.311 3331 703Z" stroke="#000000" stroke-width="13.75" stroke-linecap="round" stroke-linejoin="round" stroke-miterlimit="10" fill="none" fill-rule="evenodd"/><path d="M3331 291C3331 324.689 3303.69 352 3270 352 3236.31 352 3209 324.689 3209 291 3209 257.311 3236.31 230 3270 230 3303.69 230 3331 257.311 3331 291Z" stroke="#000000" stroke-width="13.75" stroke-linecap="round" stroke-linejoin="round" stroke-miterlimit="10" fill="none" fill-rule="evenodd"/><path d="M3331 497C3331 530.689 3303.69 558 3270 558 3236.31 558 3209 530.689 3209 497 3209 463.31 3236.31 436 3270 436 3303.69 436 3331 463.31 3331 497Z" stroke="#000000" stroke-width="13.75" stroke-linecap="round" stroke-linejoin="round" stroke-miterlimit="10" fill="none" fill-rule="evenodd"/><path d="M2701 1320.12 2701 291" stroke="#000000" stroke-width="13.75" stroke-linecap="round" stroke-linejoin="round" stroke-miterlimit="10" fill="none" fill-rule="evenodd"/><path d="M0 0 85.8837 85.8837" stroke="#000000" stroke-width="22.9167" stroke-miterlimit="8" fill="none" fill-rule="evenodd" transform="matrix(1 -1.22465e-16 -1.22465e-16 -1 3227.5 1363.38)"/><path d="M0 0 85.8837 85.8837" stroke="#000000" stroke-width="22.9167" stroke-miterlimit="8" fill="none" fill-rule="evenodd" transform="matrix(1 -1.22465e-16 -1.22465e-16 -1 3227.5 1158.38)"/><path d="M0 0 85.8837 85.8837" stroke="#000000" stroke-width="22.9167" stroke-miterlimit="8" fill="none" fill-rule="evenodd" transform="matrix(1 -1.22465e-16 -1.22465e-16 -1 3227.5 952.384)"/><path d="M0 0 85.8837 85.8837" stroke="#000000" stroke-width="22.9167" stroke-miterlimit="8" fill="none" fill-rule="evenodd" transform="matrix(1 -1.22465e-16 -1.22465e-16 -1 3227.5 746.384)"/><path d="M0 0 85.8837 85.8837" stroke="#000000" stroke-width="22.9167" stroke-miterlimit="8" fill="none" fill-rule="evenodd" transform="matrix(1 -1.22465e-16 -1.22465e-16 -1 3227.5 540.384)"/><path d="M0 0 85.8837 85.8837" stroke="#000000" stroke-width="22.9167" stroke-miterlimit="8" fill="none" fill-rule="evenodd" transform="matrix(1 -1.22465e-16 -1.22465e-16 -1 3227.5 334.384)"/></g></svg>