<svg width="804" height="1407" xmlns="http://www.w3.org/2000/svg" xmlns:xlink="http://www.w3.org/1999/xlink" xml:space="preserve" overflow="hidden"><g transform="translate(-848 -120)"><path d="M1645 1394.67C1645 1463.89 1588.89 1520 1519.66 1520L1018.34 1520C949.115 1520 893 1463.89 893 1394.67L893 252.335C893 183.114 949.115 127 1018.34 127L1519.66 127C1588.89 127 1645 183.114 1645 252.335Z" stroke="#0D0D0D" stroke-width="13.75" stroke-miterlimit="8" fill="none" fill-rule="evenodd"/><path d="M1645 1338.12 1645 309" stroke="#000000" stroke-width="13.75" stroke-linecap="round" stroke-linejoin="round" stroke-miterlimit="10" fill="none" fill-rule="evenodd"/><path d="M1523 1338C1523 1371.69 1495.91 1399 1462.5 1399 1429.09 1399 1402 1371.69 1402 1338 1402 1304.31 1429.09 1277 1462.5 1277 1495.91 1277 1523 1304.31 1523 1338Z" stroke="#000000" stroke-width="13.75" stroke-linecap="round" stroke-linejoin="round" stroke-miterlimit="10" fill="none" fill-rule="evenodd"/><path d="M1523 1132.5C1523 1165.91 1495.91 1193 1462.5 1193 1429.09 1193 1402 1165.91 1402 1132.5 1402 1099.09 1429.09 1072 1462.5 1072 1495.91 1072 1523 1099.09 1523 1132.5Z" stroke="#000000" stroke-width="13.75" stroke-linecap="round" stroke-linejoin="round" stroke-miterlimit="10" fill="none" fill-rule="evenodd"/><path d="M1523 927.5C1523 960.913 1495.91 988 1462.5 988 1429.09 988 1402 960.913 1402 927.5 1402 894.087 1429.09 867 1462.5 867 1495.91 867 1523 894.087 1523 927.5Z" stroke="#000000" stroke-width="13.75" stroke-linecap="round" stroke-linejoin="round" stroke-miterlimit="10" fill="none" fill-rule="evenodd"/><path d="M1523 721C1523 754.689 1495.91 782 1462.5 782 1429.09 782 1402 754.689 1402 721 1402 687.311 1429.09 660 1462.5 660 1495.91 660 1523 687.311 1523 721Z" stroke="#000000" stroke-width="13.75" stroke-linecap="round" stroke-linejoin="round" stroke-miterlimit="10" fill="none" fill-rule="evenodd"/><path d="M1523 309C1523 342.689 1495.91 370 1462.5 370 1429.09 370 1402 342.689 1402 309 1402 275.31 1429.09 248 1462.5 248 1495.91 248 1523 275.31 1523 309Z" stroke="#000000" stroke-width="13.75" stroke-linecap="round" stroke-linejoin="round" stroke-miterlimit="10" fill="none" fill-rule="evenodd"/><path d="M1523 515C1523 548.69 1495.91 576 1462.5 576 1429.09 576 1402 548.69 1402 515 1402 481.311 1429.09 454 1462.5 454 1495.91 454 1523 481.311 1523 515Z" stroke="#000000" stroke-width="13.75" stroke-linecap="round" stroke-linejoin="round" stroke-miterlimit="10" fill="none" fill-rule="evenodd"/><path d="M893 1338.12 893 309" stroke="#000000" stroke-width="13.75" stroke-linecap="round" stroke-linejoin="round" stroke-miterlimit="10" fill="none" fill-rule="evenodd"/><path d="M0 0 85.8837 85.8837" stroke="#000000" stroke-width="22.9167" stroke-miterlimit="8" fill="none" fill-rule="evenodd" transform="matrix(1 -1.22465e-16 -1.22465e-16 -1 1419.5 1381.38)"/><path d="M0 0 85.8837 85.8837" stroke="#000000" stroke-width="22.9167" stroke-miterlimit="8" fill="none" fill-rule="evenodd" transform="matrix(1 -1.22465e-16 -1.22465e-16 -1 1419.5 1176.38)"/><path d="M0 0 85.8837 85.8837" stroke="#000000" stroke-width="22.9167" stroke-miterlimit="8" fill="none" fill-rule="evenodd" transform="matrix(1 -1.22465e-16 -1.22465e-16 -1 1419.5 970.384)"/><path d="M0 0 85.8837 85.8837" stroke="#000000" stroke-width="22.9167" stroke-miterlimit="8" fill="none" fill-rule="evenodd" transform="matrix(1 -1.22465e-16 -1.22465e-16 -1 1419.5 764.384)"/><path d="M0 0 85.8837 85.8837" stroke="#000000" stroke-width="22.9167" stroke-miterlimit="8" fill="none" fill-rule="evenodd" transform="matrix(1 -1.22465e-16 -1.22465e-16 -1 1419.5 558.384)"/><path d="M0 0 85.8837 85.8837" stroke="#000000" stroke-width="22.9167" stroke-miterlimit="8" fill="none" fill-rule="evenodd" transform="matrix(1 -1.22465e-16 -1.22465e-16 -1 1419.5 352.384)"/><text font-family="Cinzel,Cinzel_MSFontService,sans-serif" font-weight="700" font-size="83" transform="matrix(6.12323e-17 1 -1 6.12323e-17 924.728 452)">Duncan </text><text font-family="Cinzel,Cinzel_MSFontService,sans-serif" font-weight="700" font-size="83" transform="matrix(6.12323e-17 1 -1 6.12323e-17 924.728 837)">D</text><text font-family="Cinzel,Cinzel_MSFontService,sans-serif" font-weight="700" font-size="66" transform="matrix(6.12323e-17 1 -1 6.12323e-17 924.728 905)">ESIGNED</text><text font-family="Cinzel,Cinzel_MSFontService,sans-serif" font-weight="700" font-size="83" transform="matrix(6.12323e-17 1 -1 6.12323e-17 924.728 1214)"> </text></g></svg>