<svg width="766" height="1408" xmlns="http://www.w3.org/2000/svg" xmlns:xlink="http://www.w3.org/1999/xlink" xml:space="preserve" overflow="hidden"><g transform="translate(-2690 -91)"><path d="M2697 223.335C2697 154.114 2753.11 98 2822.33 98L3323.66 98C3392.89 98 3449 154.114 3449 223.335L3449 1366.66C3449 1435.89 3392.89 1492 3323.66 1492L2822.33 1492C2753.11 1492 2697 1435.89 2697 1366.66Z" stroke="#0D0D0D" stroke-width="13.75" stroke-miterlimit="8" fill="none" fill-rule="evenodd"/><path d="M2879.5 98C2980.29 98 3062 179.708 3062 280.5" stroke="#000000" stroke-width="13.75" stroke-linecap="round" stroke-linejoin="round" stroke-miterlimit="10" fill="none" fill-rule="evenodd"/><path d="M2697 280.5C2697 179.708 2778.71 97.9999 2879.5 97.9999" stroke="#000000" stroke-width="13.75" stroke-linecap="round" stroke-linejoin="round" stroke-miterlimit="10" fill="none" fill-rule="evenodd"/><path d="M2879.5 1492C2778.71 1492 2697 1410.29 2697 1309.5" stroke="#000000" stroke-width="13.75" stroke-linecap="round" stroke-linejoin="round" stroke-miterlimit="10" fill="none" fill-rule="evenodd"/><path d="M3062 1309.5C3062 1410.29 2980.29 1492 2879.5 1492" stroke="#000000" stroke-width="13.75" stroke-linecap="round" stroke-linejoin="round" stroke-miterlimit="10" fill="none" fill-rule="evenodd"/><path d="M2697 280 2697 1309.12" stroke="#000000" stroke-width="13.75" stroke-linecap="round" stroke-linejoin="round" stroke-miterlimit="10" fill="none" fill-rule="evenodd"/><path d="M3062 280 3062 1309.12" stroke="#000000" stroke-width="13.75" stroke-linecap="round" stroke-linejoin="round" stroke-miterlimit="10" fill="none" fill-rule="evenodd"/><path d="M3267 98C3367.52 98 3449 179.708 3449 280.5" stroke="#000000" stroke-width="13.75" stroke-linecap="round" stroke-linejoin="round" stroke-miterlimit="10" fill="none" fill-rule="evenodd"/><path d="M3085 280.5C3085 179.708 3166.48 97.9999 3267 97.9999" stroke="#000000" stroke-width="13.75" stroke-linecap="round" stroke-linejoin="round" stroke-miterlimit="10" fill="none" fill-rule="evenodd"/><path d="M3267 1492C3166.48 1492 3085 1410.29 3085 1309.5" stroke="#000000" stroke-width="13.75" stroke-linecap="round" stroke-linejoin="round" stroke-miterlimit="10" fill="none" fill-rule="evenodd"/><path d="M3449 1309.5C3449 1410.29 3367.52 1492 3267 1492" stroke="#000000" stroke-width="13.75" stroke-linecap="round" stroke-linejoin="round" stroke-miterlimit="10" fill="none" fill-rule="evenodd"/><path d="M3085 280 3085 1309.12" stroke="#000000" stroke-width="13.75" stroke-linecap="round" stroke-linejoin="round" stroke-miterlimit="10" fill="none" fill-rule="evenodd"/><path d="M3449 280 3449 1309.12" stroke="#000000" stroke-width="13.75" stroke-linecap="round" stroke-linejoin="round" stroke-miterlimit="10" fill="none" fill-rule="evenodd"/><path d="M3192 280C3192 238.579 3225.58 205 3267 205 3308.42 205 3342 238.579 3342 280 3342 321.421 3308.42 355 3267 355 3225.58 355 3192 321.421 3192 280Z" stroke="#000000" stroke-width="13.75" stroke-linecap="round" stroke-linejoin="round" stroke-miterlimit="10" fill="none" fill-rule="evenodd"/><path d="M3192 485.5C3192 443.803 3225.58 410 3267 410 3308.42 410 3342 443.803 3342 485.5 3342 527.198 3308.42 561 3267 561 3225.58 561 3192 527.198 3192 485.5Z" stroke="#000000" stroke-width="13.75" stroke-linecap="round" stroke-linejoin="round" stroke-miterlimit="10" fill="none" fill-rule="evenodd"/><path d="M3191 691C3191 649.579 3224.58 616 3266 616 3307.42 616 3341 649.579 3341 691 3341 732.421 3307.42 766 3266 766 3224.58 766 3191 732.421 3191 691Z" stroke="#000000" stroke-width="13.75" stroke-linecap="round" stroke-linejoin="round" stroke-miterlimit="10" fill="none" fill-rule="evenodd"/><path d="M3191 897C3191 855.579 3224.58 822 3266 822 3307.42 822 3341 855.579 3341 897 3341 938.421 3307.42 972 3266 972 3224.58 972 3191 938.421 3191 897Z" stroke="#000000" stroke-width="13.75" stroke-linecap="round" stroke-linejoin="round" stroke-miterlimit="10" fill="none" fill-rule="evenodd"/><path d="M3192 1103C3192 1061.58 3225.58 1028 3267 1028 3308.42 1028 3342 1061.58 3342 1103 3342 1144.42 3308.42 1178 3267 1178 3225.58 1178 3192 1144.42 3192 1103Z" stroke="#000000" stroke-width="13.75" stroke-linecap="round" stroke-linejoin="round" stroke-miterlimit="10" fill="none" fill-rule="evenodd"/><path d="M3191 1309C3191 1267.58 3224.58 1234 3266 1234 3307.42 1234 3341 1267.58 3341 1309 3341 1350.42 3307.42 1384 3266 1384 3224.58 1384 3191 1350.42 3191 1309Z" stroke="#000000" stroke-width="13.75" stroke-linecap="round" stroke-linejoin="round" stroke-miterlimit="10" fill="none" fill-rule="evenodd"/><path d="M2805 1309C2805 1267.58 2838.58 1234 2880 1234 2921.42 1234 2955 1267.58 2955 1309 2955 1350.42 2921.42 1384 2880 1384 2838.58 1384 2805 1350.42 2805 1309Z" stroke="#000000" stroke-width="13.75" stroke-linecap="round" stroke-linejoin="round" stroke-miterlimit="10" fill="none" fill-rule="evenodd"/><path d="M2805 1103C2805 1061.58 2838.58 1028 2880 1028 2921.42 1028 2955 1061.58 2955 1103 2955 1144.42 2921.42 1178 2880 1178 2838.58 1178 2805 1144.42 2805 1103Z" stroke="#000000" stroke-width="13.75" stroke-linecap="round" stroke-linejoin="round" stroke-miterlimit="10" fill="none" fill-rule="evenodd"/><path d="M2805 897C2805 855.579 2838.58 822 2880 822 2921.42 822 2955 855.579 2955 897 2955 938.421 2921.42 972 2880 972 2838.58 972 2805 938.421 2805 897Z" stroke="#000000" stroke-width="13.75" stroke-linecap="round" stroke-linejoin="round" stroke-miterlimit="10" fill="none" fill-rule="evenodd"/><path d="M2805 691C2805 649.579 2838.58 616 2880 616 2921.42 616 2955 649.579 2955 691 2955 732.421 2921.42 766 2880 766 2838.58 766 2805 732.421 2805 691Z" stroke="#000000" stroke-width="13.75" stroke-linecap="round" stroke-linejoin="round" stroke-miterlimit="10" fill="none" fill-rule="evenodd"/><path d="M2805 485C2805 443.579 2838.58 410 2880 410 2921.42 410 2955 443.579 2955 485 2955 526.421 2921.42 560 2880 560 2838.58 560 2805 526.421 2805 485Z" stroke="#000000" stroke-width="13.75" stroke-linecap="round" stroke-linejoin="round" stroke-miterlimit="10" fill="none" fill-rule="evenodd"/><path d="M2805 280C2805 238.579 2838.58 205 2880 205 2921.42 205 2955 238.579 2955 280 2955 321.421 2921.42 355 2880 355 2838.58 355 2805 321.421 2805 280Z" stroke="#000000" stroke-width="13.75" stroke-linecap="round" stroke-linejoin="round" stroke-miterlimit="10" fill="none" fill-rule="evenodd"/></g></svg>