<svg width="766" height="1408" xmlns="http://www.w3.org/2000/svg" xmlns:xlink="http://www.w3.org/1999/xlink" xml:space="preserve" overflow="hidden"><g transform="translate(-3554 -96)"><path d="M3561 286.789C3561 185.285 3643.29 103 3744.79 103L4129.21 103C4230.71 103 4313 185.285 4313 286.789L4313 1305.21C4313 1406.71 4230.71 1489 4129.21 1489L3744.79 1489C3643.29 1489 3561 1406.71 3561 1305.21Z" stroke="#0D0D0D" stroke-width="13.75" stroke-miterlimit="8" fill="none" fill-rule="evenodd"/><path d="M3561 286 3561 1315.12" stroke="#000000" stroke-width="13.75" stroke-linecap="round" stroke-linejoin="round" stroke-miterlimit="10" fill="none" fill-rule="evenodd"/><path d="M3924 103 3924 1488.81" stroke="#000000" stroke-width="13.75" stroke-linecap="round" stroke-linejoin="round" stroke-miterlimit="10" fill="none" fill-rule="evenodd"/><path d="M3947 103 3947 1488.81" stroke="#000000" stroke-width="13.75" stroke-linecap="round" stroke-linejoin="round" stroke-miterlimit="10" fill="none" fill-rule="evenodd"/><path d="M4313 286 4313 1315.12" stroke="#000000" stroke-width="13.75" stroke-linecap="round" stroke-linejoin="round" stroke-miterlimit="10" fill="none" fill-rule="evenodd"/><path d="M4055 286C4055 244.579 4088.8 211 4130.5 211 4172.2 211 4206 244.579 4206 286 4206 327.421 4172.2 361 4130.5 361 4088.8 361 4055 327.421 4055 286Z" stroke="#000000" stroke-width="13.75" stroke-linecap="round" stroke-linejoin="round" stroke-miterlimit="10" fill="none" fill-rule="evenodd"/><path d="M4055 491C4055 449.579 4088.8 416 4130.5 416 4172.2 416 4206 449.579 4206 491 4206 532.421 4172.2 566 4130.5 566 4088.8 566 4055 532.421 4055 491Z" stroke="#000000" stroke-width="13.75" stroke-linecap="round" stroke-linejoin="round" stroke-miterlimit="10" fill="none" fill-rule="evenodd"/><path d="M4055 696.5C4055 654.803 4088.58 621 4130 621 4171.42 621 4205 654.803 4205 696.5 4205 738.198 4171.42 772 4130 772 4088.58 772 4055 738.198 4055 696.5Z" stroke="#000000" stroke-width="13.75" stroke-linecap="round" stroke-linejoin="round" stroke-miterlimit="10" fill="none" fill-rule="evenodd"/><path d="M4055 902.5C4055 860.803 4088.58 827 4130 827 4171.42 827 4205 860.803 4205 902.5 4205 944.198 4171.42 978 4130 978 4088.58 978 4055 944.198 4055 902.5Z" stroke="#000000" stroke-width="13.75" stroke-linecap="round" stroke-linejoin="round" stroke-miterlimit="10" fill="none" fill-rule="evenodd"/><path d="M4055 1109C4055 1067.58 4088.58 1034 4130 1034 4171.42 1034 4205 1067.58 4205 1109 4205 1150.42 4171.42 1184 4130 1184 4088.58 1184 4055 1150.42 4055 1109Z" stroke="#000000" stroke-width="13.75" stroke-linecap="round" stroke-linejoin="round" stroke-miterlimit="10" fill="none" fill-rule="evenodd"/><path d="M4055 1315C4055 1273.58 4088.58 1240 4130 1240 4171.42 1240 4205 1273.58 4205 1315 4205 1356.42 4171.42 1390 4130 1390 4088.58 1390 4055 1356.42 4055 1315Z" stroke="#000000" stroke-width="13.75" stroke-linecap="round" stroke-linejoin="round" stroke-miterlimit="10" fill="none" fill-rule="evenodd"/><path d="M3668 1315C3668 1273.58 3701.58 1240 3743 1240 3784.42 1240 3818 1273.58 3818 1315 3818 1356.42 3784.42 1390 3743 1390 3701.58 1390 3668 1356.42 3668 1315Z" stroke="#000000" stroke-width="13.75" stroke-linecap="round" stroke-linejoin="round" stroke-miterlimit="10" fill="none" fill-rule="evenodd"/><path d="M3668 1109C3668 1067.58 3701.58 1034 3743 1034 3784.42 1034 3818 1067.58 3818 1109 3818 1150.42 3784.42 1184 3743 1184 3701.58 1184 3668 1150.42 3668 1109Z" stroke="#000000" stroke-width="13.75" stroke-linecap="round" stroke-linejoin="round" stroke-miterlimit="10" fill="none" fill-rule="evenodd"/><path d="M3668 902.5C3668 860.803 3701.58 827 3743 827 3784.42 827 3818 860.803 3818 902.5 3818 944.198 3784.42 978 3743 978 3701.58 978 3668 944.198 3668 902.5Z" stroke="#000000" stroke-width="13.75" stroke-linecap="round" stroke-linejoin="round" stroke-miterlimit="10" fill="none" fill-rule="evenodd"/><path d="M3668 696.5C3668 654.803 3701.58 621 3743 621 3784.42 621 3818 654.803 3818 696.5 3818 738.198 3784.42 772 3743 772 3701.58 772 3668 738.198 3668 696.5Z" stroke="#000000" stroke-width="13.75" stroke-linecap="round" stroke-linejoin="round" stroke-miterlimit="10" fill="none" fill-rule="evenodd"/><path d="M3668 490C3668 448.579 3701.58 415 3743 415 3784.42 415 3818 448.579 3818 490 3818 531.421 3784.42 565 3743 565 3701.58 565 3668 531.421 3668 490Z" stroke="#000000" stroke-width="13.75" stroke-linecap="round" stroke-linejoin="round" stroke-miterlimit="10" fill="none" fill-rule="evenodd"/><path d="M3668 286C3668 244.579 3701.58 211 3743 211 3784.42 211 3818 244.579 3818 286 3818 327.421 3784.42 361 3743 361 3701.58 361 3668 327.421 3668 286Z" stroke="#000000" stroke-width="13.75" stroke-linecap="round" stroke-linejoin="round" stroke-miterlimit="10" fill="none" fill-rule="evenodd"/><path d="M3561 228.335C3561 159.115 3617.11 103 3686.34 103L4187.67 103C4256.89 103 4313 159.115 4313 228.335L4313 1371.67C4313 1440.89 4256.89 1497 4187.67 1497L3686.34 1497C3617.11 1497 3561 1440.89 3561 1371.67Z" stroke="#0D0D0D" stroke-width="13.75" stroke-miterlimit="8" fill="none" fill-rule="evenodd"/></g></svg>