<svg width="766" height="1408" xmlns="http://www.w3.org/2000/svg" xmlns:xlink="http://www.w3.org/1999/xlink" xml:space="preserve" overflow="hidden"><g transform="translate(-87 -91)"><path d="M93.9998 223.335C93.9998 154.114 150.114 98 219.335 98L720.665 98C789.886 98 846 154.114 846 223.335L846 1366.66C846 1435.89 789.886 1492 720.665 1492L219.335 1492C150.114 1492 93.9998 1435.89 93.9998 1366.66Z" stroke="#0D0D0D" stroke-width="13.75" stroke-miterlimit="8" fill="none" fill-rule="evenodd"/><path d="M276.5 98C377.292 98 459 179.708 459 280.5" stroke="#000000" stroke-width="13.75" stroke-linecap="round" stroke-linejoin="round" stroke-miterlimit="10" fill="none" fill-rule="evenodd"/><path d="M93.9998 280.5C93.9998 179.708 175.708 97.9999 276.5 97.9999" stroke="#000000" stroke-width="13.75" stroke-linecap="round" stroke-linejoin="round" stroke-miterlimit="10" fill="none" fill-rule="evenodd"/><path d="M276.5 1492C175.708 1492 93.9998 1410.29 93.9998 1309.5" stroke="#000000" stroke-width="13.75" stroke-linecap="round" stroke-linejoin="round" stroke-miterlimit="10" fill="none" fill-rule="evenodd"/><path d="M459 1309.5C459 1410.29 377.292 1492 276.5 1492" stroke="#000000" stroke-width="13.75" stroke-linecap="round" stroke-linejoin="round" stroke-miterlimit="10" fill="none" fill-rule="evenodd"/><path d="M93.9998 280 94.0002 1309.12" stroke="#000000" stroke-width="13.75" stroke-linecap="round" stroke-linejoin="round" stroke-miterlimit="10" fill="none" fill-rule="evenodd"/><path d="M459 280 459 1309.12" stroke="#000000" stroke-width="13.75" stroke-linecap="round" stroke-linejoin="round" stroke-miterlimit="10" fill="none" fill-rule="evenodd"/><path d="M216 280.5C216 247.087 243.087 220 276.5 220 309.913 220 337 247.087 337 280.5 337 313.913 309.913 341 276.5 341 243.087 341 216 313.913 216 280.5Z" stroke="#000000" stroke-width="13.75" stroke-linecap="round" stroke-linejoin="round" stroke-miterlimit="10" fill="none" fill-rule="evenodd"/><path d="M216 485.5C216 452.087 243.087 425 276.5 425 309.913 425 337 452.087 337 485.5 337 518.913 309.913 546 276.5 546 243.087 546 216 518.913 216 485.5Z" stroke="#000000" stroke-width="13.75" stroke-linecap="round" stroke-linejoin="round" stroke-miterlimit="10" fill="none" fill-rule="evenodd"/><path d="M216 691C216 657.311 243.087 630 276.5 630 309.913 630 337 657.311 337 691 337 724.69 309.913 752 276.5 752 243.087 752 216 724.69 216 691Z" stroke="#000000" stroke-width="13.75" stroke-linecap="round" stroke-linejoin="round" stroke-miterlimit="10" fill="none" fill-rule="evenodd"/><path d="M216 897C216 863.311 243.087 836 276.5 836 309.913 836 337 863.311 337 897 337 930.689 309.913 958 276.5 958 243.087 958 216 930.689 216 897Z" stroke="#000000" stroke-width="13.75" stroke-linecap="round" stroke-linejoin="round" stroke-miterlimit="10" fill="none" fill-rule="evenodd"/><path d="M216 1309.5C216 1276.09 243.087 1249 276.5 1249 309.913 1249 337 1276.09 337 1309.5 337 1342.91 309.913 1370 276.5 1370 243.087 1370 216 1342.91 216 1309.5Z" stroke="#000000" stroke-width="13.75" stroke-linecap="round" stroke-linejoin="round" stroke-miterlimit="10" fill="none" fill-rule="evenodd"/><path d="M216 1103C216 1069.31 243.087 1042 276.5 1042 309.913 1042 337 1069.31 337 1103 337 1136.69 309.913 1164 276.5 1164 243.087 1164 216 1136.69 216 1103Z" stroke="#000000" stroke-width="13.75" stroke-linecap="round" stroke-linejoin="round" stroke-miterlimit="10" fill="none" fill-rule="evenodd"/><path d="M664 98C764.516 98 846 179.708 846 280.5" stroke="#000000" stroke-width="13.75" stroke-linecap="round" stroke-linejoin="round" stroke-miterlimit="10" fill="none" fill-rule="evenodd"/><path d="M482 280.5C482 179.708 563.484 97.9998 664 97.9998" stroke="#000000" stroke-width="13.75" stroke-linecap="round" stroke-linejoin="round" stroke-miterlimit="10" fill="none" fill-rule="evenodd"/><path d="M664 1492C563.484 1492 482 1410.29 482 1309.5" stroke="#000000" stroke-width="13.75" stroke-linecap="round" stroke-linejoin="round" stroke-miterlimit="10" fill="none" fill-rule="evenodd"/><path d="M846 1309.5C846 1410.29 764.516 1492 664 1492" stroke="#000000" stroke-width="13.75" stroke-linecap="round" stroke-linejoin="round" stroke-miterlimit="10" fill="none" fill-rule="evenodd"/><path d="M482 280 482 1309.12" stroke="#000000" stroke-width="13.75" stroke-linecap="round" stroke-linejoin="round" stroke-miterlimit="10" fill="none" fill-rule="evenodd"/><path d="M846 280 846 1309.12" stroke="#000000" stroke-width="13.75" stroke-linecap="round" stroke-linejoin="round" stroke-miterlimit="10" fill="none" fill-rule="evenodd"/><path d="M603 280.5C603 247.087 630.311 220 664 220 697.689 220 725 247.087 725 280.5 725 313.913 697.689 341 664 341 630.311 341 603 313.913 603 280.5Z" stroke="#000000" stroke-width="13.75" stroke-linecap="round" stroke-linejoin="round" stroke-miterlimit="10" fill="none" fill-rule="evenodd"/><path d="M603 485.5C603 452.087 630.311 425 664 425 697.689 425 725 452.087 725 485.5 725 518.913 697.689 546 664 546 630.311 546 603 518.913 603 485.5Z" stroke="#000000" stroke-width="13.75" stroke-linecap="round" stroke-linejoin="round" stroke-miterlimit="10" fill="none" fill-rule="evenodd"/><path d="M603 691C603 657.311 630.311 630 664 630 697.689 630 725 657.311 725 691 725 724.69 697.689 752 664 752 630.311 752 603 724.69 603 691Z" stroke="#000000" stroke-width="13.75" stroke-linecap="round" stroke-linejoin="round" stroke-miterlimit="10" fill="none" fill-rule="evenodd"/><path d="M603 897C603 863.311 630.311 836 664 836 697.689 836 725 863.311 725 897 725 930.689 697.689 958 664 958 630.311 958 603 930.689 603 897Z" stroke="#000000" stroke-width="13.75" stroke-linecap="round" stroke-linejoin="round" stroke-miterlimit="10" fill="none" fill-rule="evenodd"/><path d="M603 1309.5C603 1276.09 630.311 1249 664 1249 697.689 1249 725 1276.09 725 1309.5 725 1342.91 697.689 1370 664 1370 630.311 1370 603 1342.91 603 1309.5Z" stroke="#000000" stroke-width="13.75" stroke-linecap="round" stroke-linejoin="round" stroke-miterlimit="10" fill="none" fill-rule="evenodd"/><path d="M603 1103C603 1069.31 630.311 1042 664 1042 697.689 1042 725 1069.31 725 1103 725 1136.69 697.689 1164 664 1164 630.311 1164 603 1136.69 603 1103Z" stroke="#000000" stroke-width="13.75" stroke-linecap="round" stroke-linejoin="round" stroke-miterlimit="10" fill="none" fill-rule="evenodd"/><path d="M0 0 85.8837 85.8837" stroke="#000000" stroke-width="22.9167" stroke-miterlimit="8" fill="none" fill-rule="evenodd" transform="matrix(-1 0 0 1 320.384 237.5)"/><path d="M0 0 85.8837 85.8837" stroke="#000000" stroke-width="22.9167" stroke-miterlimit="8" fill="none" fill-rule="evenodd" transform="matrix(-1 0 0 1 320.384 443.5)"/><path d="M0 0 85.8837 85.8837" stroke="#000000" stroke-width="22.9167" stroke-miterlimit="8" fill="none" fill-rule="evenodd" transform="matrix(-1 0 0 1 320.384 648.5)"/><path d="M0 0 85.8837 85.8837" stroke="#000000" stroke-width="22.9167" stroke-miterlimit="8" fill="none" fill-rule="evenodd" transform="matrix(-1 0 0 1 320.384 854.5)"/><path d="M0 0 85.8837 85.8837" stroke="#000000" stroke-width="22.9167" stroke-miterlimit="8" fill="none" fill-rule="evenodd" transform="matrix(-1 0 0 1 320.384 1060.5)"/><path d="M0 0 85.8837 85.8837" stroke="#000000" stroke-width="22.9167" stroke-miterlimit="8" fill="none" fill-rule="evenodd" transform="matrix(-1 0 0 1 320.384 1266.5)"/></g></svg>