<svg width="766" height="1408" xmlns="http://www.w3.org/2000/svg" xmlns:xlink="http://www.w3.org/1999/xlink" xml:space="preserve" overflow="hidden"><g transform="translate(-954 -91)"><path d="M961 223.335C961 154.114 1017.11 98 1086.34 98L1587.66 98C1656.89 98 1713 154.114 1713 223.335L1713 1366.66C1713 1435.89 1656.89 1492 1587.66 1492L1086.34 1492C1017.11 1492 961 1435.89 961 1366.66Z" stroke="#0D0D0D" stroke-width="13.75" stroke-miterlimit="8" fill="none" fill-rule="evenodd"/><path d="M961 280 961 1309.12" stroke="#000000" stroke-width="13.75" stroke-linecap="round" stroke-linejoin="round" stroke-miterlimit="10" fill="none" fill-rule="evenodd"/><path d="M1082 280.5C1082 247.087 1109.31 220 1143 220 1176.69 220 1204 247.087 1204 280.5 1204 313.913 1176.69 341 1143 341 1109.31 341 1082 313.913 1082 280.5Z" stroke="#000000" stroke-width="13.75" stroke-linecap="round" stroke-linejoin="round" stroke-miterlimit="10" fill="none" fill-rule="evenodd"/><path d="M1082 485.5C1082 452.087 1109.31 425 1143 425 1176.69 425 1204 452.087 1204 485.5 1204 518.913 1176.69 546 1143 546 1109.31 546 1082 518.913 1082 485.5Z" stroke="#000000" stroke-width="13.75" stroke-linecap="round" stroke-linejoin="round" stroke-miterlimit="10" fill="none" fill-rule="evenodd"/><path d="M1082 691C1082 657.311 1109.31 630 1143 630 1176.69 630 1204 657.311 1204 691 1204 724.69 1176.69 752 1143 752 1109.31 752 1082 724.69 1082 691Z" stroke="#000000" stroke-width="13.75" stroke-linecap="round" stroke-linejoin="round" stroke-miterlimit="10" fill="none" fill-rule="evenodd"/><path d="M1082 897C1082 863.311 1109.31 836 1143 836 1176.69 836 1204 863.311 1204 897 1204 930.689 1176.69 958 1143 958 1109.31 958 1082 930.689 1082 897Z" stroke="#000000" stroke-width="13.75" stroke-linecap="round" stroke-linejoin="round" stroke-miterlimit="10" fill="none" fill-rule="evenodd"/><path d="M1082 1309.5C1082 1276.09 1109.31 1249 1143 1249 1176.69 1249 1204 1276.09 1204 1309.5 1204 1342.91 1176.69 1370 1143 1370 1109.31 1370 1082 1342.91 1082 1309.5Z" stroke="#000000" stroke-width="13.75" stroke-linecap="round" stroke-linejoin="round" stroke-miterlimit="10" fill="none" fill-rule="evenodd"/><path d="M1082 1103C1082 1069.31 1109.31 1042 1143 1042 1176.69 1042 1204 1069.31 1204 1103 1204 1136.69 1176.69 1164 1143 1164 1109.31 1164 1082 1136.69 1082 1103Z" stroke="#000000" stroke-width="13.75" stroke-linecap="round" stroke-linejoin="round" stroke-miterlimit="10" fill="none" fill-rule="evenodd"/><path d="M1713 280 1713 1309.12" stroke="#000000" stroke-width="13.75" stroke-linecap="round" stroke-linejoin="round" stroke-miterlimit="10" fill="none" fill-rule="evenodd"/><path d="M0 0 85.8837 85.8837" stroke="#000000" stroke-width="22.9167" stroke-miterlimit="8" fill="none" fill-rule="evenodd" transform="matrix(-1 0 0 1 1186.38 237.5)"/><path d="M0 0 85.8837 85.8837" stroke="#000000" stroke-width="22.9167" stroke-miterlimit="8" fill="none" fill-rule="evenodd" transform="matrix(-1 0 0 1 1186.38 443.5)"/><path d="M0 0 85.8837 85.8837" stroke="#000000" stroke-width="22.9167" stroke-miterlimit="8" fill="none" fill-rule="evenodd" transform="matrix(-1 0 0 1 1186.38 648.5)"/><path d="M0 0 85.8837 85.8837" stroke="#000000" stroke-width="22.9167" stroke-miterlimit="8" fill="none" fill-rule="evenodd" transform="matrix(-1 0 0 1 1186.38 854.5)"/><path d="M0 0 85.8837 85.8837" stroke="#000000" stroke-width="22.9167" stroke-miterlimit="8" fill="none" fill-rule="evenodd" transform="matrix(-1 0 0 1 1186.38 1060.5)"/><path d="M0 0 85.8837 85.8837" stroke="#000000" stroke-width="22.9167" stroke-miterlimit="8" fill="none" fill-rule="evenodd" transform="matrix(-1 0 0 1 1186.38 1266.5)"/></g></svg>