<svg width="560" height="1590" xmlns="http://www.w3.org/2000/svg" xmlns:xlink="http://www.w3.org/1999/xlink" xml:space="preserve" overflow="hidden"><g transform="translate(-3653 -74)"><path d="M4024 81.0001C4124.52 81.0001 4206 162.484 4206 263" stroke="#000000" stroke-width="13.75" stroke-linecap="round" stroke-linejoin="round" stroke-miterlimit="10" fill="none" fill-rule="evenodd"/><path d="M3842 263C3842 162.484 3923.48 81.0001 4024 81.0001" stroke="#000000" stroke-width="13.75" stroke-linecap="round" stroke-linejoin="round" stroke-miterlimit="10" fill="none" fill-rule="evenodd"/><path d="M4024 172C4124.52 172 4206 253.484 4206 354" stroke="#000000" stroke-width="13.75" stroke-linecap="round" stroke-linejoin="round" stroke-miterlimit="10" fill="none" fill-rule="evenodd"/><path d="M3842 354C3842 253.484 3923.48 172 4024 172" stroke="#000000" stroke-width="13.75" stroke-linecap="round" stroke-linejoin="round" stroke-miterlimit="10" fill="none" fill-rule="evenodd"/><path d="M4024 1565C3923.48 1565 3842 1483.52 3842 1383" stroke="#000000" stroke-width="13.75" stroke-linecap="round" stroke-linejoin="round" stroke-miterlimit="10" fill="none" fill-rule="evenodd"/><path d="M4206 1383C4206 1483.52 4124.52 1565 4024 1565" stroke="#000000" stroke-width="13.75" stroke-linecap="round" stroke-linejoin="round" stroke-miterlimit="10" fill="none" fill-rule="evenodd"/><path d="M3842 354 3842 1383.12" stroke="#000000" stroke-width="13.75" stroke-linecap="round" stroke-linejoin="round" stroke-miterlimit="10" fill="none" fill-rule="evenodd"/><path d="M0 0 0.000360892 1211.39" stroke="#000000" stroke-width="13.75" stroke-linecap="round" stroke-linejoin="round" stroke-miterlimit="10" fill="none" fill-rule="evenodd" transform="matrix(-1 0 0 1 4206 263)"/><path d="M3963 354C3963 320.311 3990.31 293 4024 293 4057.69 293 4085 320.311 4085 354 4085 387.689 4057.69 415 4024 415 3990.31 415 3963 387.689 3963 354Z" stroke="#000000" stroke-width="13.75" stroke-linecap="round" stroke-linejoin="round" stroke-miterlimit="10" fill="none" fill-rule="evenodd"/><path d="M3963 559.5C3963 526.087 3990.31 499 4024 499 4057.69 499 4085 526.087 4085 559.5 4085 592.913 4057.69 620 4024 620 3990.31 620 3963 592.913 3963 559.5Z" stroke="#000000" stroke-width="13.75" stroke-linecap="round" stroke-linejoin="round" stroke-miterlimit="10" fill="none" fill-rule="evenodd"/><path d="M3963 764.5C3963 731.087 3990.31 704 4024 704 4057.69 704 4085 731.087 4085 764.5 4085 797.913 4057.69 825 4024 825 3990.31 825 3963 797.913 3963 764.5Z" stroke="#000000" stroke-width="13.75" stroke-linecap="round" stroke-linejoin="round" stroke-miterlimit="10" fill="none" fill-rule="evenodd"/><path d="M3963 971C3963 937.31 3990.31 910 4024 910 4057.69 910 4085 937.31 4085 971 4085 1004.69 4057.69 1032 4024 1032 3990.31 1032 3963 1004.69 3963 971Z" stroke="#000000" stroke-width="13.75" stroke-linecap="round" stroke-linejoin="round" stroke-miterlimit="10" fill="none" fill-rule="evenodd"/><path d="M3963 1383C3963 1349.31 3990.31 1322 4024 1322 4057.69 1322 4085 1349.31 4085 1383 4085 1416.69 4057.69 1444 4024 1444 3990.31 1444 3963 1416.69 3963 1383Z" stroke="#000000" stroke-width="13.75" stroke-linecap="round" stroke-linejoin="round" stroke-miterlimit="10" fill="none" fill-rule="evenodd"/><path d="M3963 1177C3963 1143.31 3990.31 1116 4024 1116 4057.69 1116 4085 1143.31 4085 1177 4085 1210.69 4057.69 1238 4024 1238 3990.31 1238 3963 1210.69 3963 1177Z" stroke="#000000" stroke-width="13.75" stroke-linecap="round" stroke-linejoin="round" stroke-miterlimit="10" fill="none" fill-rule="evenodd"/><path d="M4024 1657C3923.48 1657 3842 1575.29 3842 1474.5" stroke="#000000" stroke-width="13.75" stroke-linecap="round" stroke-linejoin="round" stroke-miterlimit="10" fill="none" fill-rule="evenodd"/><path d="M4206 1474.5C4206 1575.29 4124.52 1657 4024 1657" stroke="#000000" stroke-width="13.75" stroke-linecap="round" stroke-linejoin="round" stroke-miterlimit="10" fill="none" fill-rule="evenodd"/><path d="M0 0 182.27 441.077" stroke="#000000" stroke-width="13.75" stroke-linecap="round" stroke-linejoin="round" stroke-miterlimit="10" fill="none" fill-rule="evenodd" transform="matrix(1 0 0 -1 3660 704.077)"/><path d="M3660 1032 3842.27 1474.73" stroke="#000000" stroke-width="13.75" stroke-linecap="round" stroke-linejoin="round" stroke-miterlimit="10" fill="none" fill-rule="evenodd"/><path d="M3660 704 3660 1031.58" stroke="#000000" stroke-width="13.75" stroke-linecap="round" stroke-linejoin="round" stroke-miterlimit="10" fill="none" fill-rule="evenodd"/><path d="M3732 868C3732 840.938 3753.94 819 3781 819 3808.06 819 3830 840.938 3830 868 3830 895.062 3808.06 917 3781 917 3753.94 917 3732 895.062 3732 868Z" stroke="#000000" stroke-width="13.75" stroke-linecap="round" stroke-linejoin="round" stroke-miterlimit="10" fill="none" fill-rule="evenodd"/><path d="M3724 731.5C3724 716.865 3735.86 705 3750.5 705 3765.14 705 3777 716.865 3777 731.5 3777 746.136 3765.14 758 3750.5 758 3735.86 758 3724 746.136 3724 731.5Z" stroke="#000000" stroke-width="13.75" stroke-linecap="round" stroke-linejoin="round" stroke-miterlimit="10" fill="none" fill-rule="evenodd"/><path d="M3724 1005.5C3724 990.864 3735.86 979 3750.5 979 3765.14 979 3777 990.864 3777 1005.5 3777 1020.14 3765.14 1032 3750.5 1032 3735.86 1032 3724 1020.14 3724 1005.5Z" stroke="#000000" stroke-width="13.75" stroke-linecap="round" stroke-linejoin="round" stroke-miterlimit="10" fill="none" fill-rule="evenodd"/><path d="M0 0 70.7039 253.209" stroke="#000000" stroke-width="6.875" stroke-miterlimit="8" fill="none" fill-rule="evenodd" transform="matrix(1 0 0 -1 3769.5 713.709)"/><path d="M3841.92 1280.13 3769.5 1024.5" stroke="#000000" stroke-width="6.875" stroke-miterlimit="8" fill="none" fill-rule="evenodd"/><path d="M3994 128.5C3994 111.655 4007.66 98 4024.5 98 4041.34 98 4055 111.655 4055 128.5 4055 145.345 4041.34 159 4024.5 159 4007.66 159 3994 145.345 3994 128.5Z" stroke="#000000" stroke-width="13.75" stroke-linecap="round" stroke-linejoin="round" stroke-miterlimit="10" fill="none" fill-rule="evenodd"/><path d="M3994 1610.5C3994 1593.66 4007.66 1580 4024.5 1580 4041.34 1580 4055 1593.66 4055 1610.5 4055 1627.34 4041.34 1641 4024.5 1641 4007.66 1641 3994 1627.34 3994 1610.5Z" stroke="#000000" stroke-width="13.75" stroke-linecap="round" stroke-linejoin="round" stroke-miterlimit="10" fill="none" fill-rule="evenodd"/><text fill="#FFFFFF" font-family="Cinzel,Cinzel_MSFontService,sans-serif" font-weight="700" font-size="83" transform="matrix(6.12323e-17 1 -1 6.12323e-17 3876.29 491)">Duncan </text><text fill="#FFFFFF" font-family="Cinzel,Cinzel_MSFontService,sans-serif" font-weight="700" font-size="83" transform="matrix(6.12323e-17 1 -1 6.12323e-17 3876.29 876)">D</text><text fill="#FFFFFF" font-family="Cinzel,Cinzel_MSFontService,sans-serif" font-weight="700" font-size="66" transform="matrix(6.12323e-17 1 -1 6.12323e-17 3876.29 944)">ESIGNED</text><text fill="#FFFFFF" font-family="Cinzel,Cinzel_MSFontService,sans-serif" font-weight="700" font-size="83" transform="matrix(6.12323e-17 1 -1 6.12323e-17 3876.29 1253)"> </text></g></svg>