<svg width="802" height="1408" xmlns="http://www.w3.org/2000/svg" xmlns:xlink="http://www.w3.org/1999/xlink" xml:space="preserve" overflow="hidden"><g transform="translate(-939 -134)"><path d="M982 266.335C982 197.114 1038.11 141 1107.34 141L1608.66 141C1677.89 141 1734 197.114 1734 266.335L1734 1409.66C1734 1478.89 1677.89 1535 1608.66 1535L1107.34 1535C1038.11 1535 982 1478.89 982 1409.66Z" stroke="#0D0D0D" stroke-width="13.75" stroke-miterlimit="8" fill="none" fill-rule="evenodd"/><path d="M982 324 982 1353.12" stroke="#000000" stroke-width="13.75" stroke-linecap="round" stroke-linejoin="round" stroke-miterlimit="10" fill="none" fill-rule="evenodd"/><path d="M1104 323.5C1104 290.087 1131.09 263 1164.5 263 1197.91 263 1225 290.087 1225 323.5 1225 356.913 1197.91 384 1164.5 384 1131.09 384 1104 356.913 1104 323.5Z" stroke="#000000" stroke-width="13.75" stroke-linecap="round" stroke-linejoin="round" stroke-miterlimit="10" fill="none" fill-rule="evenodd"/><path d="M1104 529C1104 495.31 1131.09 468 1164.5 468 1197.91 468 1225 495.31 1225 529 1225 562.689 1197.91 590 1164.5 590 1131.09 590 1104 562.689 1104 529Z" stroke="#000000" stroke-width="13.75" stroke-linecap="round" stroke-linejoin="round" stroke-miterlimit="10" fill="none" fill-rule="evenodd"/><path d="M1104 734.5C1104 701.087 1131.09 674 1164.5 674 1197.91 674 1225 701.087 1225 734.5 1225 767.913 1197.91 795 1164.5 795 1131.09 795 1104 767.913 1104 734.5Z" stroke="#000000" stroke-width="13.75" stroke-linecap="round" stroke-linejoin="round" stroke-miterlimit="10" fill="none" fill-rule="evenodd"/><path d="M1104 940.5C1104 907.087 1131.09 880 1164.5 880 1197.91 880 1225 907.087 1225 940.5 1225 973.913 1197.91 1001 1164.5 1001 1131.09 1001 1104 973.913 1104 940.5Z" stroke="#000000" stroke-width="13.75" stroke-linecap="round" stroke-linejoin="round" stroke-miterlimit="10" fill="none" fill-rule="evenodd"/><path d="M1104 1352.5C1104 1319.09 1131.09 1292 1164.5 1292 1197.91 1292 1225 1319.09 1225 1352.5 1225 1385.91 1197.91 1413 1164.5 1413 1131.09 1413 1104 1385.91 1104 1352.5Z" stroke="#000000" stroke-width="13.75" stroke-linecap="round" stroke-linejoin="round" stroke-miterlimit="10" fill="none" fill-rule="evenodd"/><path d="M1104 1146.5C1104 1113.09 1131.09 1086 1164.5 1086 1197.91 1086 1225 1113.09 1225 1146.5 1225 1179.91 1197.91 1207 1164.5 1207 1131.09 1207 1104 1179.91 1104 1146.5Z" stroke="#000000" stroke-width="13.75" stroke-linecap="round" stroke-linejoin="round" stroke-miterlimit="10" fill="none" fill-rule="evenodd"/><path d="M1734 324 1734 1353.12" stroke="#000000" stroke-width="13.75" stroke-linecap="round" stroke-linejoin="round" stroke-miterlimit="10" fill="none" fill-rule="evenodd"/><path d="M0 0 85.8837 85.8837" stroke="#000000" stroke-width="22.9167" stroke-miterlimit="8" fill="none" fill-rule="evenodd" transform="matrix(-1 0 0 1 1208.38 281.5)"/><path d="M0 0 85.8837 85.8837" stroke="#000000" stroke-width="22.9167" stroke-miterlimit="8" fill="none" fill-rule="evenodd" transform="matrix(-1 0 0 1 1208.38 486.5)"/><path d="M0 0 85.8837 85.8837" stroke="#000000" stroke-width="22.9167" stroke-miterlimit="8" fill="none" fill-rule="evenodd" transform="matrix(-1 0 0 1 1208.38 691.5)"/><path d="M0 0 85.8837 85.8837" stroke="#000000" stroke-width="22.9167" stroke-miterlimit="8" fill="none" fill-rule="evenodd" transform="matrix(-1 0 0 1 1208.38 897.5)"/><path d="M0 0 85.8837 85.8837" stroke="#000000" stroke-width="22.9167" stroke-miterlimit="8" fill="none" fill-rule="evenodd" transform="matrix(-1 0 0 1 1208.38 1104.5)"/><path d="M0 0 85.8837 85.8837" stroke="#000000" stroke-width="22.9167" stroke-miterlimit="8" fill="none" fill-rule="evenodd" transform="matrix(-1 0 0 1 1208.38 1310.5)"/><text font-family="Cinzel,Cinzel_MSFontService,sans-serif" font-weight="700" font-size="83" transform="matrix(6.12323e-17 1 -1 6.12323e-17 1015.52 460)">Duncan </text><text font-family="Cinzel,Cinzel_MSFontService,sans-serif" font-weight="700" font-size="83" transform="matrix(6.12323e-17 1 -1 6.12323e-17 1015.52 845)">D</text><text font-family="Cinzel,Cinzel_MSFontService,sans-serif" font-weight="700" font-size="66" transform="matrix(6.12323e-17 1 -1 6.12323e-17 1015.52 913)">ESIGNED</text><text font-family="Cinzel,Cinzel_MSFontService,sans-serif" font-weight="700" font-size="83" transform="matrix(6.12323e-17 1 -1 6.12323e-17 1015.52 1222)"> </text></g></svg>