<svg width="803" height="1408" xmlns="http://www.w3.org/2000/svg" xmlns:xlink="http://www.w3.org/1999/xlink" xml:space="preserve" overflow="hidden"><g transform="translate(-1812 -137)"><path d="M1856 269.335C1856 200.114 1912.11 144 1981.33 144L2482.67 144C2551.89 144 2608 200.114 2608 269.335L2608 1412.66C2608 1481.89 2551.89 1538 2482.67 1538L1981.33 1538C1912.11 1538 1856 1481.89 1856 1412.66Z" stroke="#0D0D0D" stroke-width="13.75" stroke-miterlimit="8" fill="none" fill-rule="evenodd"/><path d="M2038 144C2138.52 144 2220 225.708 2220 326.5" stroke="#000000" stroke-width="13.75" stroke-linecap="round" stroke-linejoin="round" stroke-miterlimit="10" fill="none" fill-rule="evenodd"/><path d="M1856 326.5C1856 225.708 1937.48 144 2038 144" stroke="#000000" stroke-width="13.75" stroke-linecap="round" stroke-linejoin="round" stroke-miterlimit="10" fill="none" fill-rule="evenodd"/><path d="M2038 1538C1937.48 1538 1856 1456.29 1856 1355.5" stroke="#000000" stroke-width="13.75" stroke-linecap="round" stroke-linejoin="round" stroke-miterlimit="10" fill="none" fill-rule="evenodd"/><path d="M2220 1355.5C2220 1456.29 2138.52 1538 2038 1538" stroke="#000000" stroke-width="13.75" stroke-linecap="round" stroke-linejoin="round" stroke-miterlimit="10" fill="none" fill-rule="evenodd"/><path d="M1856 327 1856 1356.12" stroke="#000000" stroke-width="13.75" stroke-linecap="round" stroke-linejoin="round" stroke-miterlimit="10" fill="none" fill-rule="evenodd"/><path d="M2220 327 2220 1356.12" stroke="#000000" stroke-width="13.75" stroke-linecap="round" stroke-linejoin="round" stroke-miterlimit="10" fill="none" fill-rule="evenodd"/><path d="M1977 326.5C1977 293.087 2004.31 266 2038 266 2071.69 266 2099 293.087 2099 326.5 2099 359.913 2071.69 387 2038 387 2004.31 387 1977 359.913 1977 326.5Z" stroke="#000000" stroke-width="13.75" stroke-linecap="round" stroke-linejoin="round" stroke-miterlimit="10" fill="none" fill-rule="evenodd"/><path d="M1977 532C1977 498.311 2004.31 471 2038 471 2071.69 471 2099 498.311 2099 532 2099 565.689 2071.69 593 2038 593 2004.31 593 1977 565.689 1977 532Z" stroke="#000000" stroke-width="13.75" stroke-linecap="round" stroke-linejoin="round" stroke-miterlimit="10" fill="none" fill-rule="evenodd"/><path d="M1977 737.5C1977 704.087 2004.31 677 2038 677 2071.69 677 2099 704.087 2099 737.5 2099 770.913 2071.69 798 2038 798 2004.31 798 1977 770.913 1977 737.5Z" stroke="#000000" stroke-width="13.75" stroke-linecap="round" stroke-linejoin="round" stroke-miterlimit="10" fill="none" fill-rule="evenodd"/><path d="M1977 943.5C1977 910.087 2004.31 883 2038 883 2071.69 883 2099 910.087 2099 943.5 2099 976.913 2071.69 1004 2038 1004 2004.31 1004 1977 976.913 1977 943.5Z" stroke="#000000" stroke-width="13.75" stroke-linecap="round" stroke-linejoin="round" stroke-miterlimit="10" fill="none" fill-rule="evenodd"/><path d="M1977 1355.5C1977 1322.09 2004.31 1295 2038 1295 2071.69 1295 2099 1322.09 2099 1355.5 2099 1388.91 2071.69 1416 2038 1416 2004.31 1416 1977 1388.91 1977 1355.5Z" stroke="#000000" stroke-width="13.75" stroke-linecap="round" stroke-linejoin="round" stroke-miterlimit="10" fill="none" fill-rule="evenodd"/><path d="M1977 1149.5C1977 1116.09 2004.31 1089 2038 1089 2071.69 1089 2099 1116.09 2099 1149.5 2099 1182.91 2071.69 1210 2038 1210 2004.31 1210 1977 1182.91 1977 1149.5Z" stroke="#000000" stroke-width="13.75" stroke-linecap="round" stroke-linejoin="round" stroke-miterlimit="10" fill="none" fill-rule="evenodd"/><path d="M2425.5 144C2526.29 144 2608 225.708 2608 326.5" stroke="#000000" stroke-width="13.75" stroke-linecap="round" stroke-linejoin="round" stroke-miterlimit="10" fill="none" fill-rule="evenodd"/><path d="M2243 326.5C2243 225.708 2324.71 144 2425.5 144" stroke="#000000" stroke-width="13.75" stroke-linecap="round" stroke-linejoin="round" stroke-miterlimit="10" fill="none" fill-rule="evenodd"/><path d="M2425.5 1538C2324.71 1538 2243 1456.29 2243 1355.5" stroke="#000000" stroke-width="13.75" stroke-linecap="round" stroke-linejoin="round" stroke-miterlimit="10" fill="none" fill-rule="evenodd"/><path d="M2608 1355.5C2608 1456.29 2526.29 1538 2425.5 1538" stroke="#000000" stroke-width="13.75" stroke-linecap="round" stroke-linejoin="round" stroke-miterlimit="10" fill="none" fill-rule="evenodd"/><path d="M2243 327 2243 1356.12" stroke="#000000" stroke-width="13.75" stroke-linecap="round" stroke-linejoin="round" stroke-miterlimit="10" fill="none" fill-rule="evenodd"/><path d="M2608 327 2608 1356.12" stroke="#000000" stroke-width="13.75" stroke-linecap="round" stroke-linejoin="round" stroke-miterlimit="10" fill="none" fill-rule="evenodd"/><path d="M2365 326.5C2365 293.087 2392.09 266 2425.5 266 2458.91 266 2486 293.087 2486 326.5 2486 359.913 2458.91 387 2425.5 387 2392.09 387 2365 359.913 2365 326.5Z" stroke="#000000" stroke-width="13.75" stroke-linecap="round" stroke-linejoin="round" stroke-miterlimit="10" fill="none" fill-rule="evenodd"/><path d="M2365 532C2365 498.311 2392.09 471 2425.5 471 2458.91 471 2486 498.311 2486 532 2486 565.689 2458.91 593 2425.5 593 2392.09 593 2365 565.689 2365 532Z" stroke="#000000" stroke-width="13.75" stroke-linecap="round" stroke-linejoin="round" stroke-miterlimit="10" fill="none" fill-rule="evenodd"/><path d="M2365 737.5C2365 704.087 2392.09 677 2425.5 677 2458.91 677 2486 704.087 2486 737.5 2486 770.913 2458.91 798 2425.5 798 2392.09 798 2365 770.913 2365 737.5Z" stroke="#000000" stroke-width="13.75" stroke-linecap="round" stroke-linejoin="round" stroke-miterlimit="10" fill="none" fill-rule="evenodd"/><path d="M2365 943.5C2365 910.087 2392.09 883 2425.5 883 2458.91 883 2486 910.087 2486 943.5 2486 976.913 2458.91 1004 2425.5 1004 2392.09 1004 2365 976.913 2365 943.5Z" stroke="#000000" stroke-width="13.75" stroke-linecap="round" stroke-linejoin="round" stroke-miterlimit="10" fill="none" fill-rule="evenodd"/><path d="M2365 1355.5C2365 1322.09 2392.09 1295 2425.5 1295 2458.91 1295 2486 1322.09 2486 1355.5 2486 1388.91 2458.91 1416 2425.5 1416 2392.09 1416 2365 1388.91 2365 1355.5Z" stroke="#000000" stroke-width="13.75" stroke-linecap="round" stroke-linejoin="round" stroke-miterlimit="10" fill="none" fill-rule="evenodd"/><path d="M2365 1149.5C2365 1116.09 2392.09 1089 2425.5 1089 2458.91 1089 2486 1116.09 2486 1149.5 2486 1182.91 2458.91 1210 2425.5 1210 2392.09 1210 2365 1182.91 2365 1149.5Z" stroke="#000000" stroke-width="13.75" stroke-linecap="round" stroke-linejoin="round" stroke-miterlimit="10" fill="none" fill-rule="evenodd"/><path d="M0 0 85.8837 85.8837" stroke="#000000" stroke-width="22.9167" stroke-miterlimit="8" fill="none" fill-rule="evenodd" transform="matrix(-1 0 0 1 2081.38 284.5)"/><path d="M0 0 85.8837 85.8837" stroke="#000000" stroke-width="22.9167" stroke-miterlimit="8" fill="none" fill-rule="evenodd" transform="matrix(-1 0 0 1 2081.38 489.5)"/><path d="M0 0 85.8837 85.8837" stroke="#000000" stroke-width="22.9167" stroke-miterlimit="8" fill="none" fill-rule="evenodd" transform="matrix(-1 0 0 1 2081.38 694.5)"/><path d="M0 0 85.8837 85.8837" stroke="#000000" stroke-width="22.9167" stroke-miterlimit="8" fill="none" fill-rule="evenodd" transform="matrix(-1 0 0 1 2081.38 900.5)"/><path d="M0 0 85.8837 85.8837" stroke="#000000" stroke-width="22.9167" stroke-miterlimit="8" fill="none" fill-rule="evenodd" transform="matrix(-1 0 0 1 2081.38 1107.5)"/><path d="M0 0 85.8837 85.8837" stroke="#000000" stroke-width="22.9167" stroke-miterlimit="8" fill="none" fill-rule="evenodd" transform="matrix(-1 0 0 1 2081.38 1313.5)"/><text font-family="Cinzel,Cinzel_MSFontService,sans-serif" font-weight="700" font-size="83" transform="matrix(6.12323e-17 1 -1 6.12323e-17 1888.88 460)">Duncan </text><text font-family="Cinzel,Cinzel_MSFontService,sans-serif" font-weight="700" font-size="83" transform="matrix(6.12323e-17 1 -1 6.12323e-17 1888.88 845)">D</text><text font-family="Cinzel,Cinzel_MSFontService,sans-serif" font-weight="700" font-size="66" transform="matrix(6.12323e-17 1 -1 6.12323e-17 1888.88 913)">ESIGNED</text><text font-family="Cinzel,Cinzel_MSFontService,sans-serif" font-weight="700" font-size="83" transform="matrix(6.12323e-17 1 -1 6.12323e-17 1888.88 1222)"> </text></g></svg>