<svg width="766" height="1408" xmlns="http://www.w3.org/2000/svg" xmlns:xlink="http://www.w3.org/1999/xlink" xml:space="preserve" overflow="hidden"><g transform="translate(-961 -91)"><path d="M1720 1366.68C1720 1435.89 1663.89 1492 1594.68 1492L1093.39 1492C1024.17 1492 968.064 1435.89 968.064 1366.68L968.064 223.324C968.064 154.11 1024.17 98 1093.39 98L1594.68 98C1663.89 98 1720 154.11 1720 223.324Z" stroke="#0D0D0D" stroke-width="13.75" stroke-miterlimit="8" fill="none" fill-rule="evenodd"/><path d="M1537.5 1492C1436.71 1492 1355 1410.29 1355 1309.5" stroke="#000000" stroke-width="13.75" stroke-linecap="round" stroke-linejoin="round" stroke-miterlimit="10" fill="none" fill-rule="evenodd"/><path d="M1720 1309.5C1720 1410.29 1638.29 1492 1537.5 1492" stroke="#000000" stroke-width="13.75" stroke-linecap="round" stroke-linejoin="round" stroke-miterlimit="10" fill="none" fill-rule="evenodd"/><path d="M1537.5 98C1638.29 98 1720 179.708 1720 280.5" stroke="#000000" stroke-width="13.75" stroke-linecap="round" stroke-linejoin="round" stroke-miterlimit="10" fill="none" fill-rule="evenodd"/><path d="M1355 280.5C1355 179.708 1436.71 97.9999 1537.5 97.9999" stroke="#000000" stroke-width="13.75" stroke-linecap="round" stroke-linejoin="round" stroke-miterlimit="10" fill="none" fill-rule="evenodd"/><path d="M1720 1309.12 1720 280" stroke="#000000" stroke-width="13.75" stroke-linecap="round" stroke-linejoin="round" stroke-miterlimit="10" fill="none" fill-rule="evenodd"/><path d="M1355 1309.12 1355 280" stroke="#000000" stroke-width="13.75" stroke-linecap="round" stroke-linejoin="round" stroke-miterlimit="10" fill="none" fill-rule="evenodd"/><path d="M1598 1309.5C1598 1342.91 1570.91 1370 1537.5 1370 1504.09 1370 1477 1342.91 1477 1309.5 1477 1276.09 1504.09 1249 1537.5 1249 1570.91 1249 1598 1276.09 1598 1309.5Z" stroke="#000000" stroke-width="13.75" stroke-linecap="round" stroke-linejoin="round" stroke-miterlimit="10" fill="none" fill-rule="evenodd"/><path d="M1598 1104C1598 1137.69 1570.91 1165 1537.5 1165 1504.09 1165 1477 1137.69 1477 1104 1477 1070.31 1504.09 1043 1537.5 1043 1570.91 1043 1598 1070.31 1598 1104Z" stroke="#000000" stroke-width="13.75" stroke-linecap="round" stroke-linejoin="round" stroke-miterlimit="10" fill="none" fill-rule="evenodd"/><path d="M1598 898.5C1598 931.913 1570.91 959 1537.5 959 1504.09 959 1477 931.913 1477 898.5 1477 865.087 1504.09 838 1537.5 838 1570.91 838 1598 865.087 1598 898.5Z" stroke="#000000" stroke-width="13.75" stroke-linecap="round" stroke-linejoin="round" stroke-miterlimit="10" fill="none" fill-rule="evenodd"/><path d="M1598 692.5C1598 725.913 1570.91 753 1537.5 753 1504.09 753 1477 725.913 1477 692.5 1477 659.087 1504.09 632 1537.5 632 1570.91 632 1598 659.087 1598 692.5Z" stroke="#000000" stroke-width="13.75" stroke-linecap="round" stroke-linejoin="round" stroke-miterlimit="10" fill="none" fill-rule="evenodd"/><path d="M1598 280.5C1598 313.913 1570.91 341 1537.5 341 1504.09 341 1477 313.913 1477 280.5 1477 247.087 1504.09 220 1537.5 220 1570.91 220 1598 247.087 1598 280.5Z" stroke="#000000" stroke-width="13.75" stroke-linecap="round" stroke-linejoin="round" stroke-miterlimit="10" fill="none" fill-rule="evenodd"/><path d="M1598 486.5C1598 519.913 1570.91 547 1537.5 547 1504.09 547 1477 519.913 1477 486.5 1477 453.087 1504.09 426 1537.5 426 1570.91 426 1598 453.087 1598 486.5Z" stroke="#000000" stroke-width="13.75" stroke-linecap="round" stroke-linejoin="round" stroke-miterlimit="10" fill="none" fill-rule="evenodd"/><path d="M1150 1492C1049.48 1492 968 1410.29 968 1309.5" stroke="#000000" stroke-width="13.75" stroke-linecap="round" stroke-linejoin="round" stroke-miterlimit="10" fill="none" fill-rule="evenodd"/><path d="M1332 1309.5C1332 1410.29 1250.52 1492 1150 1492" stroke="#000000" stroke-width="13.75" stroke-linecap="round" stroke-linejoin="round" stroke-miterlimit="10" fill="none" fill-rule="evenodd"/><path d="M1150 98C1250.52 98 1332 179.708 1332 280.5" stroke="#000000" stroke-width="13.75" stroke-linecap="round" stroke-linejoin="round" stroke-miterlimit="10" fill="none" fill-rule="evenodd"/><path d="M968 280.5C968 179.708 1049.48 97.9998 1150 97.9998" stroke="#000000" stroke-width="13.75" stroke-linecap="round" stroke-linejoin="round" stroke-miterlimit="10" fill="none" fill-rule="evenodd"/><path d="M1332 1309.12 1332 280" stroke="#000000" stroke-width="13.75" stroke-linecap="round" stroke-linejoin="round" stroke-miterlimit="10" fill="none" fill-rule="evenodd"/><path d="M968 1309.12 968 280" stroke="#000000" stroke-width="13.75" stroke-linecap="round" stroke-linejoin="round" stroke-miterlimit="10" fill="none" fill-rule="evenodd"/><path d="M1211 1309.5C1211 1342.91 1183.69 1370 1150 1370 1116.31 1370 1089 1342.91 1089 1309.5 1089 1276.09 1116.31 1249 1150 1249 1183.69 1249 1211 1276.09 1211 1309.5Z" stroke="#000000" stroke-width="13.75" stroke-linecap="round" stroke-linejoin="round" stroke-miterlimit="10" fill="none" fill-rule="evenodd"/><path d="M1211 1104C1211 1137.69 1183.69 1165 1150 1165 1116.31 1165 1089 1137.69 1089 1104 1089 1070.31 1116.31 1043 1150 1043 1183.69 1043 1211 1070.31 1211 1104Z" stroke="#000000" stroke-width="13.75" stroke-linecap="round" stroke-linejoin="round" stroke-miterlimit="10" fill="none" fill-rule="evenodd"/><path d="M1211 898.5C1211 931.913 1183.69 959 1150 959 1116.31 959 1089 931.913 1089 898.5 1089 865.087 1116.31 838 1150 838 1183.69 838 1211 865.087 1211 898.5Z" stroke="#000000" stroke-width="13.75" stroke-linecap="round" stroke-linejoin="round" stroke-miterlimit="10" fill="none" fill-rule="evenodd"/><path d="M1211 692.5C1211 725.913 1183.69 753 1150 753 1116.31 753 1089 725.913 1089 692.5 1089 659.087 1116.31 632 1150 632 1183.69 632 1211 659.087 1211 692.5Z" stroke="#000000" stroke-width="13.75" stroke-linecap="round" stroke-linejoin="round" stroke-miterlimit="10" fill="none" fill-rule="evenodd"/><path d="M1211 280.5C1211 313.913 1183.69 341 1150 341 1116.31 341 1089 313.913 1089 280.5 1089 247.087 1116.31 220 1150 220 1183.69 220 1211 247.087 1211 280.5Z" stroke="#000000" stroke-width="13.75" stroke-linecap="round" stroke-linejoin="round" stroke-miterlimit="10" fill="none" fill-rule="evenodd"/><path d="M1211 486.5C1211 519.913 1183.69 547 1150 547 1116.31 547 1089 519.913 1089 486.5 1089 453.087 1116.31 426 1150 426 1183.69 426 1211 453.087 1211 486.5Z" stroke="#000000" stroke-width="13.75" stroke-linecap="round" stroke-linejoin="round" stroke-miterlimit="10" fill="none" fill-rule="evenodd"/><path d="M0 0 85.8837 85.8837" stroke="#000000" stroke-width="22.9167" stroke-miterlimit="8" fill="none" fill-rule="evenodd" transform="matrix(1 -1.22465e-16 -1.22465e-16 -1 1494.5 1352.38)"/><path d="M0 0 85.8837 85.8837" stroke="#000000" stroke-width="22.9167" stroke-miterlimit="8" fill="none" fill-rule="evenodd" transform="matrix(1 -1.22465e-16 -1.22465e-16 -1 1494.5 1147.38)"/><path d="M0 0 85.8837 85.8837" stroke="#000000" stroke-width="22.9167" stroke-miterlimit="8" fill="none" fill-rule="evenodd" transform="matrix(1 -1.22465e-16 -1.22465e-16 -1 1494.5 942.384)"/><path d="M0 0 85.8837 85.8837" stroke="#000000" stroke-width="22.9167" stroke-miterlimit="8" fill="none" fill-rule="evenodd" transform="matrix(1 -1.22465e-16 -1.22465e-16 -1 1494.5 736.384)"/><path d="M0 0 85.8837 85.8837" stroke="#000000" stroke-width="22.9167" stroke-miterlimit="8" fill="none" fill-rule="evenodd" transform="matrix(1 -1.22465e-16 -1.22465e-16 -1 1494.5 530.384)"/><path d="M0 0 85.8837 85.8837" stroke="#000000" stroke-width="22.9167" stroke-miterlimit="8" fill="none" fill-rule="evenodd" transform="matrix(1 -1.22465e-16 -1.22465e-16 -1 1494.5 323.384)"/></g></svg>