<svg width="803" height="1407" xmlns="http://www.w3.org/2000/svg" xmlns:xlink="http://www.w3.org/1999/xlink" xml:space="preserve" overflow="hidden"><g transform="translate(-2647 -120)"><path d="M3443 1394.67C3443 1463.89 3386.89 1520 3317.66 1520L2816.33 1520C2747.11 1520 2691 1463.89 2691 1394.67L2691 252.335C2691 183.114 2747.11 127 2816.33 127L3317.66 127C3386.89 127 3443 183.114 3443 252.335Z" stroke="#0D0D0D" stroke-width="13.75" stroke-miterlimit="8" fill="none" fill-rule="evenodd"/><path d="M3260.5 1520C3159.71 1520 3078 1438.52 3078 1338" stroke="#000000" stroke-width="13.75" stroke-linecap="round" stroke-linejoin="round" stroke-miterlimit="10" fill="none" fill-rule="evenodd"/><path d="M3443 1338C3443 1438.52 3361.29 1520 3260.5 1520" stroke="#000000" stroke-width="13.75" stroke-linecap="round" stroke-linejoin="round" stroke-miterlimit="10" fill="none" fill-rule="evenodd"/><path d="M3260.5 127C3361.29 127 3443 208.484 3443 309" stroke="#000000" stroke-width="13.75" stroke-linecap="round" stroke-linejoin="round" stroke-miterlimit="10" fill="none" fill-rule="evenodd"/><path d="M3078 309C3078 208.484 3159.71 127 3260.5 127" stroke="#000000" stroke-width="13.75" stroke-linecap="round" stroke-linejoin="round" stroke-miterlimit="10" fill="none" fill-rule="evenodd"/><path d="M3443 1338.12 3443 309" stroke="#000000" stroke-width="13.75" stroke-linecap="round" stroke-linejoin="round" stroke-miterlimit="10" fill="none" fill-rule="evenodd"/><path d="M3078 1338.12 3078 309" stroke="#000000" stroke-width="13.75" stroke-linecap="round" stroke-linejoin="round" stroke-miterlimit="10" fill="none" fill-rule="evenodd"/><path d="M3321 1338C3321 1371.69 3293.91 1399 3260.5 1399 3227.09 1399 3200 1371.69 3200 1338 3200 1304.31 3227.09 1277 3260.5 1277 3293.91 1277 3321 1304.31 3321 1338Z" stroke="#000000" stroke-width="13.75" stroke-linecap="round" stroke-linejoin="round" stroke-miterlimit="10" fill="none" fill-rule="evenodd"/><path d="M3321 1132.5C3321 1165.91 3293.91 1193 3260.5 1193 3227.09 1193 3200 1165.91 3200 1132.5 3200 1099.09 3227.09 1072 3260.5 1072 3293.91 1072 3321 1099.09 3321 1132.5Z" stroke="#000000" stroke-width="13.75" stroke-linecap="round" stroke-linejoin="round" stroke-miterlimit="10" fill="none" fill-rule="evenodd"/><path d="M3321 927.5C3321 960.913 3293.91 988 3260.5 988 3227.09 988 3200 960.913 3200 927.5 3200 894.087 3227.09 867 3260.5 867 3293.91 867 3321 894.087 3321 927.5Z" stroke="#000000" stroke-width="13.75" stroke-linecap="round" stroke-linejoin="round" stroke-miterlimit="10" fill="none" fill-rule="evenodd"/><path d="M3321 721C3321 754.689 3293.91 782 3260.5 782 3227.09 782 3200 754.689 3200 721 3200 687.311 3227.09 660 3260.5 660 3293.91 660 3321 687.311 3321 721Z" stroke="#000000" stroke-width="13.75" stroke-linecap="round" stroke-linejoin="round" stroke-miterlimit="10" fill="none" fill-rule="evenodd"/><path d="M3321 309C3321 342.689 3293.91 370 3260.5 370 3227.09 370 3200 342.689 3200 309 3200 275.31 3227.09 248 3260.5 248 3293.91 248 3321 275.31 3321 309Z" stroke="#000000" stroke-width="13.75" stroke-linecap="round" stroke-linejoin="round" stroke-miterlimit="10" fill="none" fill-rule="evenodd"/><path d="M3321 515C3321 548.69 3293.91 576 3260.5 576 3227.09 576 3200 548.69 3200 515 3200 481.311 3227.09 454 3260.5 454 3293.91 454 3321 481.311 3321 515Z" stroke="#000000" stroke-width="13.75" stroke-linecap="round" stroke-linejoin="round" stroke-miterlimit="10" fill="none" fill-rule="evenodd"/><path d="M2873 1520C2772.48 1520 2691 1438.52 2691 1338" stroke="#000000" stroke-width="13.75" stroke-linecap="round" stroke-linejoin="round" stroke-miterlimit="10" fill="none" fill-rule="evenodd"/><path d="M3055 1338C3055 1438.52 2973.52 1520 2873 1520" stroke="#000000" stroke-width="13.75" stroke-linecap="round" stroke-linejoin="round" stroke-miterlimit="10" fill="none" fill-rule="evenodd"/><path d="M2873 127C2973.52 127 3055 208.484 3055 309" stroke="#000000" stroke-width="13.75" stroke-linecap="round" stroke-linejoin="round" stroke-miterlimit="10" fill="none" fill-rule="evenodd"/><path d="M2691 309C2691 208.484 2772.48 127 2873 127" stroke="#000000" stroke-width="13.75" stroke-linecap="round" stroke-linejoin="round" stroke-miterlimit="10" fill="none" fill-rule="evenodd"/><path d="M3055 1338.12 3055 309" stroke="#000000" stroke-width="13.75" stroke-linecap="round" stroke-linejoin="round" stroke-miterlimit="10" fill="none" fill-rule="evenodd"/><path d="M2691 1338.12 2691 309" stroke="#000000" stroke-width="13.75" stroke-linecap="round" stroke-linejoin="round" stroke-miterlimit="10" fill="none" fill-rule="evenodd"/><path d="M2934 1338C2934 1371.69 2906.69 1399 2873 1399 2839.31 1399 2812 1371.69 2812 1338 2812 1304.31 2839.31 1277 2873 1277 2906.69 1277 2934 1304.31 2934 1338Z" stroke="#000000" stroke-width="13.75" stroke-linecap="round" stroke-linejoin="round" stroke-miterlimit="10" fill="none" fill-rule="evenodd"/><path d="M2934 1132.5C2934 1165.91 2906.69 1193 2873 1193 2839.31 1193 2812 1165.91 2812 1132.5 2812 1099.09 2839.31 1072 2873 1072 2906.69 1072 2934 1099.09 2934 1132.5Z" stroke="#000000" stroke-width="13.75" stroke-linecap="round" stroke-linejoin="round" stroke-miterlimit="10" fill="none" fill-rule="evenodd"/><path d="M2934 927.5C2934 960.913 2906.69 988 2873 988 2839.31 988 2812 960.913 2812 927.5 2812 894.087 2839.31 867 2873 867 2906.69 867 2934 894.087 2934 927.5Z" stroke="#000000" stroke-width="13.75" stroke-linecap="round" stroke-linejoin="round" stroke-miterlimit="10" fill="none" fill-rule="evenodd"/><path d="M2934 721C2934 754.689 2906.69 782 2873 782 2839.31 782 2812 754.689 2812 721 2812 687.311 2839.31 660 2873 660 2906.69 660 2934 687.311 2934 721Z" stroke="#000000" stroke-width="13.75" stroke-linecap="round" stroke-linejoin="round" stroke-miterlimit="10" fill="none" fill-rule="evenodd"/><path d="M2934 309C2934 342.689 2906.69 370 2873 370 2839.31 370 2812 342.689 2812 309 2812 275.31 2839.31 248 2873 248 2906.69 248 2934 275.31 2934 309Z" stroke="#000000" stroke-width="13.75" stroke-linecap="round" stroke-linejoin="round" stroke-miterlimit="10" fill="none" fill-rule="evenodd"/><path d="M2934 515C2934 548.69 2906.69 576 2873 576 2839.31 576 2812 548.69 2812 515 2812 481.311 2839.31 454 2873 454 2906.69 454 2934 481.311 2934 515Z" stroke="#000000" stroke-width="13.75" stroke-linecap="round" stroke-linejoin="round" stroke-miterlimit="10" fill="none" fill-rule="evenodd"/><path d="M0 0 85.8837 85.8837" stroke="#000000" stroke-width="22.9167" stroke-miterlimit="8" fill="none" fill-rule="evenodd" transform="matrix(1 -1.22465e-16 -1.22465e-16 -1 3218.5 1381.38)"/><path d="M0 0 85.8837 85.8837" stroke="#000000" stroke-width="22.9167" stroke-miterlimit="8" fill="none" fill-rule="evenodd" transform="matrix(1 -1.22465e-16 -1.22465e-16 -1 3218.5 1176.38)"/><path d="M0 0 85.8837 85.8837" stroke="#000000" stroke-width="22.9167" stroke-miterlimit="8" fill="none" fill-rule="evenodd" transform="matrix(1 -1.22465e-16 -1.22465e-16 -1 3218.5 970.384)"/><path d="M0 0 85.8837 85.8837" stroke="#000000" stroke-width="22.9167" stroke-miterlimit="8" fill="none" fill-rule="evenodd" transform="matrix(1 -1.22465e-16 -1.22465e-16 -1 3218.5 764.384)"/><path d="M0 0 85.8837 85.8837" stroke="#000000" stroke-width="22.9167" stroke-miterlimit="8" fill="none" fill-rule="evenodd" transform="matrix(1 -1.22465e-16 -1.22465e-16 -1 3218.5 558.384)"/><path d="M0 0 85.8837 85.8837" stroke="#000000" stroke-width="22.9167" stroke-miterlimit="8" fill="none" fill-rule="evenodd" transform="matrix(1 -1.22465e-16 -1.22465e-16 -1 3218.5 352.384)"/><text fill="#FFFFFF" font-family="Cinzel,Cinzel_MSFontService,sans-serif" font-weight="700" font-size="83" transform="matrix(6.12323e-17 1 -1 6.12323e-17 2723.93 446)">Duncan </text><text fill="#FFFFFF" font-family="Cinzel,Cinzel_MSFontService,sans-serif" font-weight="700" font-size="83" transform="matrix(6.12323e-17 1 -1 6.12323e-17 2723.93 831)">D</text><text fill="#FFFFFF" font-family="Cinzel,Cinzel_MSFontService,sans-serif" font-weight="700" font-size="66" transform="matrix(6.12323e-17 1 -1 6.12323e-17 2723.93 899)">ESIGNED</text><text fill="#FFFFFF" font-family="Cinzel,Cinzel_MSFontService,sans-serif" font-weight="700" font-size="83" transform="matrix(6.12323e-17 1 -1 6.12323e-17 2723.93 1208)"> </text></g></svg>