<svg width="916" height="2309" viewBox="0 0 916 2309" xmlns="http://www.w3.org/2000/svg" xmlns:xlink="http://www.w3.org/1999/xlink" xml:space="preserve" overflow="hidden"><g transform="translate(-1651 -185)"><path d="M44.6659 0C64.7243 139.525 84.7826 279.049 86.8504 402.418 88.9183 525.787 69.0668 643.771 57.0731 740.215 45.0795 836.658 24.4008 885.614 14.8886 981.078 5.37646 1076.54 0 1313 0 1313L0 1313" stroke="#c8a96e" stroke-width="36.6667" stroke-linecap="round" stroke-miterlimit="8" fill="none" fill-rule="evenodd" transform="matrix(-1 0 0 1 2548.5 203.5)"/><path d="M0 0C34.6838 16.9686 69.3675 33.9372 97.4097 62.4007 125.452 90.8641 146.606 122.612 168.253 170.781 189.9 218.95 214.99 282.992 227.289 351.414 239.588 419.836 239.096 480.047 242.048 581.311 245 682.576 245 820.788 245 959" stroke="#c8a96e" stroke-width="36.6667" stroke-linecap="round" stroke-miterlimit="8" fill="none" fill-rule="evenodd" transform="matrix(-1 0 0 1 2548.5 1516.5)"/><path d="M0 0C8.49383 0.152083 16.9877 0.304166 28.6667 1.825 40.3457 3.34583 50.4321 3.95416 70.0741 9.12498 89.7161 14.2958 123.691 25.2458 146.519 32.8499 169.346 40.4541 184.741 48.9707 207.037 54.7499 229.333 60.5291 257.469 64.4832 280.296 67.5249 303.124 70.5665 323.562 71.7832 344 72.9999" stroke="#c8a96e" stroke-width="36.6667" stroke-linecap="round" stroke-miterlimit="8" fill="none" fill-rule="evenodd" transform="matrix(-1 0 0 1 2502.5 203.5)"/><path d="M0 0 489 1435" stroke="#c8a96e" stroke-width="36.6667" stroke-miterlimit="8" fill="none" fill-rule="evenodd" transform="matrix(-1 0 0 1 2158.5 276.5)"/><path d="M188 0C146.706 30.1074 105.412 60.2147 75.3796 101.253 45.3475 142.291 20.0931 186.398 7.80722 246.229-4.4787 306.06 1.32319 373.946 1.66444 460.241 2.00568 546.536 5.93037 655.268 9.85505 764" stroke="#c8a96e" stroke-width="36.6667" stroke-linecap="round" stroke-miterlimit="8" fill="none" fill-rule="evenodd" transform="matrix(-1 0 0 1 1857.5 1711.5)"/><path d="M0 0 446.103 0.000360892" stroke="#c8a96e" stroke-width="36.6667" stroke-linecap="round" stroke-miterlimit="8" fill="none" fill-rule="evenodd" transform="matrix(-1 0 0 1 2303.6 2475.5)"/></g></svg>
