<svg width="945" height="2471" viewBox="0 0 945 2471" xmlns="http://www.w3.org/2000/svg" xmlns:xlink="http://www.w3.org/1999/xlink" xml:space="preserve" overflow="hidden"><g transform="translate(-1908 15)"><path d="M1986.05 3.49993C2012.8 160.346 2039.54 317.191 2042.3 455.876 2045.06 594.56 2018.59 727.191 2002.6 835.607 1986.61 944.023 1959.03 999.057 1946.35 1106.37 1933.67 1213.69 1926.5 1479.5 1926.5 1479.5L1926.5 1479.5" stroke="#c8a96e" stroke-width="36.6667" stroke-linecap="round" stroke-miterlimit="8" fill="none" fill-rule="evenodd"/><path d="M1926.5 1479.5C1965.29 1496.45 2004.08 1513.4 2035.44 1541.84 2066.8 1570.27 2090.46 1601.98 2114.67 1650.1 2138.88 1698.22 2166.94 1762.2 2180.69 1830.55 2194.45 1898.9 2193.9 1959.05 2197.2 2060.21 2200.5 2161.36 2200.5 2299.43 2200.5 2437.5" stroke="#c8a96e" stroke-width="36.6667" stroke-linecap="round" stroke-miterlimit="8" fill="none" fill-rule="evenodd"/><path d="M1986.5 3.49993C1995.36 3.76868 2004.23 4.03743 2016.42 6.72493 2028.6 9.41243 2039.13 10.4874 2059.63 19.6249 2080.13 28.7624 2115.58 48.1124 2139.41 61.5499 2163.23 74.9874 2179.3 90.0374 2202.56 100.25 2225.83 110.462 2255.2 117.45 2279.02 122.825 2302.84 128.2 2324.17 130.35 2345.5 132.5" stroke="#c8a96e" stroke-width="36.6667" stroke-linecap="round" stroke-miterlimit="8" fill="none" fill-rule="evenodd"/><path d="M2345.5 132.5 2834.5 1723.5" stroke="#c8a96e" stroke-width="36.6667" stroke-miterlimit="8" fill="none" fill-rule="evenodd"/><path d="M2834.5 1723.5C2791.23 1751.64 2747.96 1779.77 2716.49 1818.13 2685.02 1856.48 2658.55 1897.7 2645.68 1953.61 2632.81 2009.53 2638.89 2072.97 2639.24 2153.62 2639.6 2234.27 2643.71 2335.88 2647.83 2437.5" stroke="#c8a96e" stroke-width="36.6667" stroke-linecap="round" stroke-miterlimit="8" fill="none" fill-rule="evenodd"/><path d="M2200.5 2437.5 2646.52 2437.5" stroke="#c8a96e" stroke-width="36.6667" stroke-linecap="round" stroke-miterlimit="8" fill="none" fill-rule="evenodd"/></g></svg>
