<svg width="1624" height="2473" viewBox="0 0 1624 2473" xmlns="http://www.w3.org/2000/svg" xmlns:xlink="http://www.w3.org/1999/xlink" xml:space="preserve" overflow="hidden"><g transform="translate(-2354 16)"><path d="M2560.28 399.352C2527.66 448.277 2495.04 497.202 2483.53 552.842 2472.02 608.482 2479.7 669.239 2491.21 733.193 2502.72 797.147 2533.42 874.531 2552.61 936.567 2571.79 998.602 2599.29 1049.77 2606.33 1105.41 2613.36 1161.05 2615.28 1198.14 2594.82 1270.41 2574.35 1342.68 2512.95 1465.47 2483.53 1539.01 2454.11 1612.56 2436.2 1656.69 2418.3 1711.69 2400.39 1766.69 2383.76 1819.13 2376.09 1869.02 2368.41 1918.9 2369.05 1966.87 2372.25 2011 2375.45 2055.12 2380.56 2091.58 2395.27 2133.79 2409.98 2176 2427.89 2225.88 2460.51 2264.25 2493.13 2302.63 2534.7 2337.16 2590.98 2364.02 2647.26 2390.88 2722.73 2412.63 2798.2 2425.42 2873.66 2438.21 2955.53 2442.05 3043.79 2440.77 3132.05 2439.49 3229.26 2433.09 3327.75 2417.74 3426.24 2402.4 3546.48 2386.41 3634.74 2348.67 3723 2310.94 3803.58 2256.58 3857.31 2191.35 3911.03 2126.11 3944.93 2042.33 3957.08 1957.27 3969.23 1872.22 3958.36 1779.48 3930.22 1680.99 3902.08 1582.5 3823.41 1447.56 3788.23 1366.34 3753.06 1285.12 3733.87 1245.47 3719.16 1193.66 3704.45 1141.86 3700.61 1097.09 3699.98 1055.52 3699.34 1013.95 3697.42 1015.87 3715.33 944.241 3733.23 872.612 3786.32 715.285 3807.42 625.75 3828.53 536.214 3839.69 480.84 3841.96 407.026 3844.23 333.213 3842.8 241.706 3821.05 182.868 3799.31 124.03 3711.49 54 3711.49 54L3711.49 54" stroke="#c8a96e" stroke-width="32.0833" stroke-linecap="round" stroke-miterlimit="8" fill="none" fill-rule="evenodd"/><path d="M2562 396.862C2570.16 474.024 2578.33 551.186 2608.4 618.471 2638.48 685.755 2695.76 766.496 2742.45 800.568 2789.14 834.64 2843.56 839.221 2888.53 822.901 2933.5 806.581 2976.46 748.172 3012.26 702.648 3048.07 657.124 3073.56 585.258 3103.35 549.755 3133.14 514.252 3159.49 489.629 3190.99 489.629 3222.5 489.629 3258.88 525.991 3292.39 549.755 3325.9 573.519 3352.54 621.048 3392.07 632.214 3431.59 643.38 3484.58 648.534 3529.55 616.753 3574.52 584.972 3633.24 507.666 3661.88 441.527 3690.52 375.388 3693.39 284.34 3701.41 219.918 3709.43 155.497 3709.71 105.248 3710 55" stroke="#c8a96e" stroke-width="32.0833" stroke-linecap="round" stroke-miterlimit="8" fill="none" fill-rule="evenodd"/><path d="M3011.72 702.969 3010-6.10352e-05" stroke="#c8a96e" stroke-width="32.0833" stroke-linecap="round" stroke-miterlimit="8" fill="none" fill-rule="evenodd"/><path d="M3292.19 550 3275 0" stroke="#c8a96e" stroke-width="32.0833" stroke-linecap="round" stroke-miterlimit="8" fill="none" fill-rule="evenodd"/><path d="M3010 0 3274.69 0.000360892" stroke="#c8a96e" stroke-width="32.0833" stroke-linecap="round" stroke-miterlimit="8" fill="none" fill-rule="evenodd"/><path d="M3803.24 617C3681.77 734.23 3560.3 851.46 3515.36 973.533 3470.41 1095.61 3502 1233.83 3533.58 1349.44 3565.16 1465.06 3635.61 1566.46 3704.85 1667.22 3774.08 1767.98 3861.54 1860.99 3949 1954" stroke="#c8a96e" stroke-width="32.0833" stroke-linecap="round" stroke-miterlimit="8" fill="none" fill-rule="evenodd"/></g></svg>
