<svg width="1394" height="2339" viewBox="0 0 1394 2339" xmlns="http://www.w3.org/2000/svg" xmlns:xlink="http://www.w3.org/1999/xlink" xml:space="preserve" overflow="hidden"><g transform="translate(-2456 16)"><path d="M2697.45 253C2655.36 283.838 2608.49 329.02 2588.4 387.828 2568.31 446.636 2568.31 526.481 2576.92 605.848 2585.53 685.215 2622.84 801.398 2640.05 864.031 2657.27 926.663 2670.66 926.663 2680.23 981.647 2689.79 1036.63 2711.32 1118.39 2697.45 1193.93 2683.58 1269.47 2633.36 1343.1 2597.01 1434.9 2560.66 1526.7 2495.14 1654.35 2479.35 1744.72 2463.57 1835.08 2474.09 1907.28 2502.31 1977.08 2530.53 2046.89 2578.83 2113.82 2648.66 2163.55 2718.49 2213.27 2829.93 2251.52 2921.28 2275.42 3012.63 2299.33 3088.2 2307.46 3196.76 2306.98 3305.33 2306.5 3477.99 2300.76 3572.69 2272.56 3667.38 2244.35 3721.43 2202.75 3764.95 2137.73 3808.47 2072.7 3830.95 1968.48 3833.82 1882.41 3836.69 1796.35 3804.17 1694.04 3782.17 1621.36 3760.17 1548.69 3726.21 1504.23 3701.82 1446.37 3677.43 1388.52 3645.86 1329.24 3635.82 1274.25 3625.77 1219.27 3629.6 1173.85 3641.56 1116.47 3653.51 1059.1 3691.3 995.99 3707.56 930.01 3723.82 864.031 3745.82 782.273 3739.12 720.596 3732.43 658.919 3699.91 609.434 3667.38 559.949" stroke="#c8a96e" stroke-width="32.0833" stroke-linecap="round" stroke-miterlimit="8" fill="none" fill-rule="evenodd"/><path d="M3045 981 3291.78 981" stroke="#c8a96e" stroke-width="32.0833" stroke-linecap="round" stroke-miterlimit="8" fill="none" fill-rule="evenodd"/><path d="M3291.89 981.391 3276 6.10352e-05" stroke="#c8a96e" stroke-width="32.0833" stroke-linecap="round" stroke-miterlimit="8" fill="none" fill-rule="evenodd"/><path d="M0 0 9.25111 981.391" stroke="#c8a96e" stroke-width="32.0833" stroke-linecap="round" stroke-miterlimit="8" fill="none" fill-rule="evenodd" transform="matrix(1 0 0 -1 3045 981.391)"/><path d="M0 0 221.642 0.000360892" stroke="#c8a96e" stroke-width="32.0833" stroke-linecap="round" stroke-miterlimit="8" fill="none" fill-rule="evenodd" transform="matrix(1 0 0 -1 3054 0.000360892)"/><path d="M3047 678.249C3032.54 702.471 3018.08 726.693 2996.25 740.652 2974.42 754.61 2942.22 762 2916.02 762 2889.83 762 2865.27 760.084 2839.07 740.652 2812.88 721.219 2779.31 683.997 2758.85 645.406 2738.38 606.815 2725.28 562.75 2716.28 509.106 2707.27 455.461 2707 367.057 2704.82 323.54 2702.64 280.022 2702.91 264.011 2703.18 248" stroke="#c8a96e" stroke-width="32.0833" stroke-linecap="round" stroke-miterlimit="8" fill="none" fill-rule="evenodd"/><path d="M3292 828.13C3315.31 854.494 3338.62 880.858 3359.07 895.81 3379.52 910.763 3393.16 915.223 3414.7 917.846 3436.24 920.469 3461.59 925.716 3488.32 911.55 3515.04 897.385 3551.03 866.167 3575.02 832.852 3599.02 799.536 3617.28 755.465 3632.28 711.657 3647.28 667.848 3656.14 618.924 3665 570" stroke="#c8a96e" stroke-width="32.0833" stroke-linecap="round" stroke-miterlimit="8" fill="none" fill-rule="evenodd"/></g></svg>
