<svg width="712" height="2237" viewBox="0 0 712 2237" xmlns="http://www.w3.org/2000/svg" xmlns:xlink="http://www.w3.org/1999/xlink" xml:space="preserve" overflow="hidden"><g transform="translate(-1605 -152)"><path d="M1695.43 1487.34C1681.13 1508.77 1666.82 1530.21 1661.78 1554.6 1656.73 1578.98 1660.09 1605.6 1665.14 1633.63 1670.19 1661.65 1683.65 1695.56 1692.06 1722.75 1700.47 1749.93 1712.53 1772.35 1715.62 1796.73 1718.7 1821.11 1719.54 1837.37 1710.57 1869.04 1701.6 1900.71 1674.68 1954.51 1661.78 1986.74 1648.88 2018.97 1641.03 2038.31 1633.18 2062.41 1625.32 2086.51 1618.03 2109.49 1614.67 2131.35 1611.3 2153.21 1611.58 2174.23 1612.99 2193.57 1614.39 2212.91 1616.63 2228.88 1623.08 2247.38 1629.53 2265.87 1637.38 2287.73 1651.68 2304.55 1665.98 2321.36 1684.21 2336.5 1708.89 2348.27 1733.56 2360.04 1766.65 2369.57 1799.74 2375.17 1832.83 2380.78 1868.72 2382.46 1907.42 2381.9 1946.11 2381.34 1988.74 2378.53 2031.92 2371.81 2075.1 2365.08 2127.82 2358.08 2166.52 2341.54 2205.21 2325.01 2240.54 2301.19 2264.1 2272.6 2287.65 2244.01 2302.51 2207.3 2307.84 2170.03 2313.17 2132.75 2308.4 2092.12 2296.06 2048.96 2283.73 2005.8 2249.24 1946.67 2233.81 1911.08 2218.39 1875.48 2209.98 1858.11 2203.53 1835.41 2197.08 1812.71 2195.4 1793.09 2195.12 1774.87 2194.84 1756.66 2194 1757.5 2201.85 1726.11 2209.7 1694.72 2232.97 1625.78 2242.23 1586.54 2251.48 1547.31 2256.37 1523.04 2257.37 1490.7 2258.36 1458.35 2257.74 1418.25 2248.2 1392.47 2238.67 1366.69 2200.16 1336 2200.16 1336L2200.16 1336" stroke="#c8a96e" stroke-width="13.75" stroke-linecap="round" stroke-miterlimit="8" fill="none" fill-rule="evenodd"/><path d="M1696 1486.03C1699.58 1519.9 1703.15 1553.76 1716.33 1583.29 1729.51 1612.82 1754.61 1648.25 1775.06 1663.21 1795.52 1678.16 1819.37 1680.17 1839.07 1673.01 1858.77 1665.84 1877.6 1640.21 1893.28 1620.23 1908.97 1600.25 1920.14 1568.71 1933.19 1553.13 1946.24 1537.55 1957.79 1526.74 1971.6 1526.74 1985.4 1526.74 2001.34 1542.7 2016.02 1553.13 2030.71 1563.56 2042.38 1584.42 2059.7 1589.32 2077.02 1594.22 2100.23 1596.48 2119.94 1582.54 2139.64 1568.59 2165.37 1534.66 2177.92 1505.63 2190.47 1476.61 2191.72 1436.65 2195.23 1408.38 2198.75 1380.1 2198.87 1358.05 2199 1336" stroke="#c8a96e" stroke-width="13.75" stroke-linecap="round" stroke-miterlimit="8" fill="none" fill-rule="evenodd"/><path d="M2240.07 1583C2186.79 1634.38 2133.52 1685.76 2113.81 1739.27 2094.09 1792.77 2107.95 1853.35 2121.8 1904.03 2135.65 1954.7 2166.55 1999.15 2196.92 2043.31 2227.28 2087.47 2265.64 2128.23 2304 2169" stroke="#c8a96e" stroke-width="13.75" stroke-linecap="round" stroke-miterlimit="8" fill="none" fill-rule="evenodd"/><path d="M1853.32 159C1858.85 191.836 1864.39 224.671 1864.96 253.705 1865.53 282.738 1860.05 310.504 1856.74 333.201 1853.44 355.898 1847.73 367.419 1845.11 389.886 1842.48 412.352 1841 468 1841 468L1841 468" stroke="#c8a96e" stroke-width="13.75" stroke-linecap="round" stroke-miterlimit="8" fill="none" fill-rule="evenodd"/><path d="M1841 468C1849.07 471.556 1857.14 475.113 1863.66 481.079 1870.19 487.044 1875.11 493.698 1880.14 503.794 1885.18 513.89 1891.02 527.313 1893.88 541.654 1896.74 555.995 1896.63 568.615 1897.31 589.839 1898 611.063 1898 640.032 1898 669" stroke="#c8a96e" stroke-width="13.75" stroke-linecap="round" stroke-miterlimit="8" fill="none" fill-rule="evenodd"/><path d="M1853 159C1854.88 159.056 1856.75 159.113 1859.33 159.675 1861.91 160.238 1864.14 160.463 1868.48 162.375 1872.82 164.288 1880.33 168.338 1885.37 171.15 1890.41 173.963 1893.81 177.113 1898.74 179.25 1903.67 181.388 1909.88 182.85 1914.93 183.975 1919.97 185.1 1924.48 185.55 1929 186" stroke="#c8a96e" stroke-width="13.75" stroke-linecap="round" stroke-miterlimit="8" fill="none" fill-rule="evenodd"/><path d="M1929 186 2031 520" stroke="#c8a96e" stroke-width="13.75" stroke-linecap="round" stroke-miterlimit="8" fill="none" fill-rule="evenodd"/><path d="M2031 520C2021.99 525.872 2012.99 531.744 2006.44 539.747 1999.89 547.75 1994.38 556.352 1991.7 568.021 1989.02 579.69 1990.29 592.929 1990.36 609.759 1990.44 626.589 1991.29 647.794 1992.15 669" stroke="#c8a96e" stroke-width="13.75" stroke-linecap="round" stroke-miterlimit="8" fill="none" fill-rule="evenodd"/><path d="M1992 669 2016.04 1553.06" stroke="#c8a96e" stroke-width="13.75" stroke-linecap="round" stroke-miterlimit="8" fill="none" fill-rule="evenodd"/><path d="M0 0 4.87963 951.113" stroke="#c8a96e" stroke-width="13.75" stroke-linecap="round" stroke-miterlimit="8" fill="none" fill-rule="evenodd" transform="matrix(-1 0 0 1 1897.88 669)"/></g></svg>
