<svg width="699" height="2169" viewBox="0 0 699 2169" xmlns="http://www.w3.org/2000/svg" xmlns:xlink="http://www.w3.org/1999/xlink" xml:space="preserve" overflow="hidden"><g transform="translate(-1549 -153)"><path d="M1662.02 1282C1638.83 1298.41 1617.23 1321.2 1608.28 1356.57 1599.32 1391.93 1598.68 1429.5 1608.28 1494.19 1617.87 1558.87 1672.89 1662.48 1665.85 1744.68 1658.82 1826.89 1579.81 1915.46 1566.05 1987.43 1552.3 2059.41 1548.14 2124.96 1583.33 2176.55 1618.51 2228.14 1692.72 2276.9 1777.17 2296.97 1861.61 2317.04 2012.91 2324.68 2090 2296.97 2167.09 2269.26 2227.86 2202.06 2239.7 2130.7 2251.53 2059.35 2179.24 1931.26 2161.01 1868.82 2142.78 1806.38 2128.7 1796.82 2130.3 1756.05 2131.9 1715.27 2161.01 1662.39 2170.61 1624.16 2180.2 1585.94 2191.4 1557.58 2187.88 1526.68 2184.36 1495.78 2172.69 1465.35 2155.25 1436.84" stroke="#c8a96e" stroke-width="13.75" stroke-linecap="round" stroke-miterlimit="8" fill="none" fill-rule="evenodd"/><path d="M1835 1650 1961.63 1650" stroke="#c8a96e" stroke-width="13.75" stroke-linecap="round" stroke-miterlimit="8" fill="none" fill-rule="evenodd"/><path d="M0 0 17.1489 1089.67" stroke="#c8a96e" stroke-width="13.75" stroke-linecap="round" stroke-miterlimit="8" fill="none" fill-rule="evenodd" transform="matrix(1 0 0 -1 1835 1650.67)"/><path d="M1961.04 1650.67 1944 561" stroke="#c8a96e" stroke-width="13.75" stroke-linecap="round" stroke-miterlimit="8" fill="none" fill-rule="evenodd"/><path d="M1664.72 1280C1665.2 1302.26 1656.88 1331.5 1659.52 1362.05 1662.16 1392.6 1669.6 1436 1680.59 1463.3 1691.57 1490.61 1707.16 1513.67 1725.43 1525.87 1743.7 1538.07 1771.06 1539.87 1790.2 1536.5 1809.35 1533.13 1819.98 1520.46 1836 1505.65" stroke="#c8a96e" stroke-width="13.75" stroke-linecap="round" stroke-miterlimit="8" fill="none" fill-rule="evenodd"/><path d="M1961 1568.06C1977.97 1588.47 1994.93 1608.88 2012.96 1616.4 2030.99 1623.92 2050.61 1624.82 2069.16 1613.18 2087.72 1601.54 2110.17 1575.94 2124.31 1546.57 2138.45 1517.21 2146.22 1477.11 2154 1437" stroke="#c8a96e" stroke-width="13.75" stroke-linecap="round" stroke-miterlimit="8" fill="none" fill-rule="evenodd"/><path d="M1944 560C1944 540.958 1944 521.917 1947.29 506.049 1950.59 490.182 1954.98 477.135 1963.76 464.794 1972.55 452.452 1986.27 442.226 2000 432" stroke="#c8a96e" stroke-width="13.75" stroke-linecap="round" stroke-miterlimit="8" fill="none" fill-rule="evenodd"/><path d="M1987.85 161C1982.41 188.602 1976.98 216.203 1975.62 237.353 1974.26 258.502 1974.94 265.134 1979.69 287.897 1984.45 310.659 1999.85 349.911 2004.16 373.929 2008.46 397.946 2006.99 414.973 2005.51 432" stroke="#c8a96e" stroke-width="13.75" stroke-linecap="round" stroke-miterlimit="8" fill="none" fill-rule="evenodd"/><path d="M1914 184C1921.11 183.705 1928.22 183.41 1934.89 181.348 1941.57 179.286 1954.05 171.626 1954.05 171.626 1960.87 168.238 1970.15 162.788 1975.81 161.02 1981.47 159.253 1984.74 160.136 1988 161.02" stroke="#c8a96e" stroke-width="13.75" stroke-linecap="round" stroke-miterlimit="8" fill="none" fill-rule="evenodd"/><path d="M0 0 100.547 292.188" stroke="#c8a96e" stroke-width="13.75" stroke-linecap="round" stroke-miterlimit="8" fill="none" fill-rule="evenodd" transform="matrix(-1 0 0 1 1913.55 184)"/><path d="M1851.94 560C1852.42 527.578 1850.21 526.282 1844.88 503.802 1831.5 488.24 1828.92 488.672 1814 477" stroke="#c8a96e" stroke-width="13.75" stroke-linecap="round" stroke-miterlimit="8" fill="none" fill-rule="evenodd"/></g></svg>
